<?xml version="1.0" encoding="UTF-8" standalone="no" ?>
<!DOCTYPE svg PUBLIC "-//W3C//DTD SVG 1.1//EN" "http://www.w3.org/Graphics/SVG/1.1/DTD/svg11.dtd">
<svg xmlns="http://www.w3.org/2000/svg" xmlns:xlink="http://www.w3.org/1999/xlink" version="1.1" width="150" height="110" xml:space="preserve">
<desc>Created with Fabric.js 4.2.0</desc>
<defs>
</defs>
<rect x="0" y="0" width="100%" height="100%" fill="transparent"></rect>
<g transform="matrix(0 0 0 0 0 0)" id="587791b0-b98c-46ca-b3b2-ed1645ba522e"  >
</g>
<g transform="matrix(1 0 0 1 75 55)" id="1bea99eb-00a1-444e-9791-ea01d5d1963f"  >
<rect style="stroke: none; stroke-width: 1; stroke-dasharray: none; stroke-linecap: butt; stroke-dashoffset: 0; stroke-linejoin: miter; stroke-miterlimit: 4; fill: rgb(255,255,255); fill-rule: nonzero; opacity: 1;" vector-effect="non-scaling-stroke"  x="-75" y="-55" rx="0" ry="0" width="150" height="110" />
</g>
<g transform="matrix(0.91 0 0 0.91 76.43 55.07)"  >
<g style="" vector-effect="non-scaling-stroke"   >
		<g transform="matrix(1 0 0 1 -50.45 36.9)"  >
<path style="stroke: none; stroke-width: 1; stroke-dasharray: none; stroke-linecap: butt; stroke-dashoffset: 0; stroke-linejoin: miter; stroke-miterlimit: 4; fill: rgb(95,95,95); fill-rule: nonzero; opacity: 1;" vector-effect="non-scaling-stroke"  transform=" translate(-247.45, -457.8)" d="M 246.4 462.3 L 246.4 453.3 L 248.5 453.3 L 248.5 462.3 L 246.4 462.3 z" stroke-linecap="round" />
</g>
		<g transform="matrix(1 0 0 1 -33.75 36.9)"  >
<path style="stroke: none; stroke-width: 1; stroke-dasharray: none; stroke-linecap: butt; stroke-dashoffset: 0; stroke-linejoin: miter; stroke-miterlimit: 4; fill: rgb(95,95,95); fill-rule: nonzero; opacity: 1;" vector-effect="non-scaling-stroke"  transform=" translate(-264.15, -457.8)" d="M 266.3 462.3 L 266.40000000000003 456.1 L 266.3 456.1 L 264.8 462.3 L 263.40000000000003 462.3 L 261.90000000000003 456.1 L 261.90000000000003 456.1 L 262.00000000000006 462.3 L 260 462.3 L 260 453.3 L 262.6 453.3 L 264.1 459.1 L 264.20000000000005 459.1 L 265.6 453.3 L 268.3 453.3 L 268.3 462.3 L 266.3 462.3 z" stroke-linecap="round" />
</g>
		<g transform="matrix(1 0 0 1 -15.3 36.9)"  >
<path style="stroke: none; stroke-width: 1; stroke-dasharray: none; stroke-linecap: butt; stroke-dashoffset: 0; stroke-linejoin: miter; stroke-miterlimit: 4; fill: rgb(95,95,95); fill-rule: nonzero; opacity: 1;" vector-effect="non-scaling-stroke"  transform=" translate(-282.6, -457.8)" d="M 283.9 462.3 L 283.5 460.7 L 281.5 460.7 L 281.1 462.3 L 279.1 462.3 L 281.3 453.3 L 283.90000000000003 453.3 L 286.1 462.3 L 283.9 462.3 z M 282.5 455.3 L 282.5 455.3 L 281.7 459.1 L 283.2 459.1 L 282.5 455.3 z" stroke-linecap="round" />
</g>
		<g transform="matrix(1 0 0 1 1.6 36.9)"  >
<path style="stroke: none; stroke-width: 1; stroke-dasharray: none; stroke-linecap: butt; stroke-dashoffset: 0; stroke-linejoin: miter; stroke-miterlimit: 4; fill: rgb(95,95,95); fill-rule: nonzero; opacity: 1;" vector-effect="non-scaling-stroke"  transform=" translate(-299.5, -457.8)" d="M 301.4 462.3 C 301 462.40000000000003 300.5 462.5 300 462.5 C 299.4 462.5 298.9 462.4 298.5 462.2 C 298.1 462 297.7 461.59999999999997 297.4 461.2 C 297.09999999999997 460.8 296.9 460.3 296.7 459.7 C 296.5 459.09999999999997 296.5 458.5 296.5 457.8 C 296.5 457.1 296.6 456.40000000000003 296.7 455.90000000000003 C 296.9 455.3 297.09999999999997 454.8 297.4 454.40000000000003 C 297.7 454.00000000000006 298.09999999999997 453.70000000000005 298.5 453.40000000000003 C 298.9 453.20000000000005 299.4 453.1 299.9 453.1 C 300.5 453.1 301 453.20000000000005 301.4 453.40000000000003 C 301.79999999999995 453.6 302.09999999999997 453.90000000000003 302.4 454.20000000000005 L 301.29999999999995 455.70000000000005 C 300.99999999999994 455.30000000000007 300.59999999999997 455.1 299.99999999999994 455.1 C 299.69999999999993 455.1 299.49999999999994 455.20000000000005 299.29999999999995 455.3 C 299.09999999999997 455.40000000000003 298.9 455.7 298.79999999999995 455.90000000000003 C 298.69999999999993 456.20000000000005 298.59999999999997 456.50000000000006 298.49999999999994 456.8 C 298.3999999999999 457.1 298.3999999999999 457.5 298.3999999999999 457.90000000000003 C 298.3999999999999 458.3 298.3999999999999 458.6 298.49999999999994 459.00000000000006 C 298.59999999999997 459.30000000000007 298.69999999999993 459.6000000000001 298.79999999999995 459.90000000000003 C 298.9 460.20000000000005 299.09999999999997 460.40000000000003 299.29999999999995 460.50000000000006 C 299.49999999999994 460.70000000000005 299.69999999999993 460.70000000000005 299.99999999999994 460.70000000000005 C 300.29999999999995 460.70000000000005 300.49999999999994 460.6 300.69999999999993 460.50000000000006 L 300.69999999999993 458.80000000000007 L 299.69999999999993 458.80000000000007 L 299.69999999999993 457 L 302.49999999999994 457 L 302.49999999999994 461.8 C 302.1 462 301.8 462.2 301.4 462.3 z" stroke-linecap="round" />
</g>
		<g transform="matrix(1 0 0 1 16.95 36.9)"  >
<path style="stroke: none; stroke-width: 1; stroke-dasharray: none; stroke-linecap: butt; stroke-dashoffset: 0; stroke-linejoin: miter; stroke-miterlimit: 4; fill: rgb(95,95,95); fill-rule: nonzero; opacity: 1;" vector-effect="non-scaling-stroke"  transform=" translate(-314.85, -457.8)" d="M 313.8 462.3 L 313.8 453.3 L 315.90000000000003 453.3 L 315.90000000000003 462.3 L 313.8 462.3 z" stroke-linecap="round" />
</g>
		<g transform="matrix(1 0 0 1 32.65 36.9)"  >
<path style="stroke: none; stroke-width: 1; stroke-dasharray: none; stroke-linecap: butt; stroke-dashoffset: 0; stroke-linejoin: miter; stroke-miterlimit: 4; fill: rgb(95,95,95); fill-rule: nonzero; opacity: 1;" vector-effect="non-scaling-stroke"  transform=" translate(-330.55, -457.8)" d="M 331.3 462.3 L 329.2 456.8 L 329.2 456.8 L 329.3 462.3 L 327.5 462.3 L 327.5 453.3 L 329.7 453.3 L 331.8 458.90000000000003 L 331.8 458.90000000000003 L 331.8 453.3 L 333.6 453.3 L 333.6 462.3 L 331.3 462.3 z" stroke-linecap="round" />
</g>
		<g transform="matrix(1 0 0 1 49.45 36.9)"  >
<path style="stroke: none; stroke-width: 1; stroke-dasharray: none; stroke-linecap: butt; stroke-dashoffset: 0; stroke-linejoin: miter; stroke-miterlimit: 4; fill: rgb(95,95,95); fill-rule: nonzero; opacity: 1;" vector-effect="non-scaling-stroke"  transform=" translate(-347.35, -457.8)" d="M 345.1 462.3 L 345.1 453.3 L 349.5 453.3 L 349.5 455.1 L 347 455.1 L 347 456.90000000000003 L 349.2 456.90000000000003 L 349.2 458.6 L 347 458.6 L 347 460.5 L 349.6 460.5 L 349.6 462.3 L 345.1 462.3 z" stroke-linecap="round" />
</g>
		<g transform="matrix(1 0 0 1 -41.3 -4.9)"  >
<linearGradient id="SVGID_123" gradientUnits="userSpaceOnUse" gradientTransform="matrix(1 0 0 1 0 0)"  x1="235.2892" y1="416.0255" x2="277.8463" y2="416.0255">
<stop offset="0.09301631%" style="stop-color:rgb(173,221,159);stop-opacity: 1"/>
<stop offset="100%" style="stop-color:rgb(233,235,236);stop-opacity: 1"/>
</linearGradient>
<path style="stroke: none; stroke-width: 1; stroke-dasharray: none; stroke-linecap: butt; stroke-dashoffset: 0; stroke-linejoin: miter; stroke-miterlimit: 4; fill: url(#SVGID_123); fill-rule: nonzero; opacity: 1;" vector-effect="non-scaling-stroke"  transform=" translate(-256.6, -416)" d="M 243.1 433.6 L 243.29999999999998 432.3 C 243.89999999999998 427.1 249.79999999999998 422.2 261.2 417.5 L 265.8 415.5 C 273.2 412.3 277.90000000000003 405.8 277.90000000000003 398.4 C 277.90000000000003 395.59999999999997 277.20000000000005 393 276.00000000000006 390.5 C 273.40000000000003 391.3 271.1000000000001 392.5 269.00000000000006 394.2 C 269.70000000000005 395.5 270.00000000000006 396.9 270.00000000000006 398.4 C 270.00000000000006 402.5 267.20000000000005 406.29999999999995 262.70000000000005 408.2 L 258.20000000000005 410.2 C 242.50000000000006 416.7 235.50000000000006 423.9 235.30000000000004 433.5 L 235.30000000000004 441.5 L 270 441.5 C 265.5 439.8 261.5 437.1 258.1 433.6 L 243.1 433.6 z" stroke-linecap="round" />
</g>
		<g transform="matrix(1 0 0 1 -47.45 -32.45)"  >
<linearGradient id="SVGID_124" gradientUnits="userSpaceOnUse" gradientTransform="matrix(1 0 0 1 0 0)"  x1="235.068" y1="388.3853" x2="265.8914" y2="388.3853">
<stop offset="0.09301631%" style="stop-color:rgb(173,221,159);stop-opacity: 1"/>
<stop offset="100%" style="stop-color:rgb(233,235,236);stop-opacity: 1"/>
</linearGradient>
<path style="stroke: none; stroke-width: 1; stroke-dasharray: none; stroke-linecap: butt; stroke-dashoffset: 0; stroke-linejoin: miter; stroke-miterlimit: 4; fill: url(#SVGID_124); fill-rule: nonzero; opacity: 1;" vector-effect="non-scaling-stroke"  transform=" translate(-250.45, -388.45)" d="M 256.4 387.4 C 256.9 387.4 257.4 387.4 258 387.5 C 260.3 385.1 262.9 383.1 265.9 381.5 C 263 380.2 259.7 379.5 256.4 379.5 C 244.99999999999997 379.5 235.7 387.3 234.99999999999997 397.4 L 242.89999999999998 397.4 C 243.7 391.7 249.5 387.4 256.4 387.4 z" stroke-linecap="round" />
</g>
		<g transform="matrix(1 0 0 1 7.8 -10.5)"  >
<linearGradient id="SVGID_125" gradientUnits="userSpaceOnUse" gradientTransform="matrix(1 0 0 1 0 0)"  x1="286.3389" y1="410.483" x2="325.334" y2="410.483">
<stop offset="0%" style="stop-color:rgb(80,116,125);stop-opacity: 0.217"/>
<stop offset="100%" style="stop-color:rgb(23,187,231);stop-opacity: 1"/>
</linearGradient>
<path style="stroke: none; stroke-width: 1; stroke-dasharray: none; stroke-linecap: butt; stroke-dashoffset: 0; stroke-linejoin: miter; stroke-miterlimit: 4; fill: url(#SVGID_125); fill-rule: nonzero; opacity: 1;" vector-effect="non-scaling-stroke"  transform=" translate(-305.7, -410.4)" d="M 325.3 422.5 C 325.3 416.2 322.1 410.3 316.7 406.8 L 315.5 406 L 316.5 405 C 319.5 402.2 321.1 398.4 321.1 394.3 C 321.1 386.1 314.20000000000005 379.3 305.70000000000005 379.3 C 297.20000000000005 379.3 290.30000000000007 386 290.30000000000007 394.3 C 290.30000000000007 398.3 291.9000000000001 402.1 294.9000000000001 405 L 295.9000000000001 406 L 294.7000000000001 406.8 C 289.3000000000001 410.3 286.1000000000001 416.2 286.1000000000001 422.5 C 286.1000000000001 433 294.80000000000007 441.5 305.6000000000001 441.5 C 316.6 441.5 325.3 433 325.3 422.5 z M 305.8 433.6 C 299.40000000000003 433.6 294.2 428.6 294.2 422.5 C 294.2 419.9 295.2 417.4 297 415.4 C 296.8 413.79999999999995 296.6 412.09999999999997 296.6 410.5 C 296.6 406.4 297.3 402.4 298.8 398.6 C 298 397.40000000000003 297.5 395.90000000000003 297.5 394.5 C 297.5 390.2 301.2 386.7 305.7 386.7 C 310.2 386.7 313.9 390.2 313.9 394.5 C 313.9 396.1 313.4 397.7 312.4 399 C 310.09999999999997 402.4 308.9 406.4 308.9 410.6 C 308.9 411 308.9 411.5 309 412.1 C 313.9 413.5 317.3 417.8 317.3 422.70000000000005 C 317.4 428.6 312.2 433.6 305.8 433.6 z" stroke-linecap="round" />
</g>
		<g transform="matrix(1 0 0 1 41.45 -10.45)"  >
<linearGradient id="SVGID_126" gradientUnits="userSpaceOnUse" gradientTransform="matrix(1 0 0 1 0 0)"  x1="317.8802" y1="410.483" x2="360.932" y2="410.483">
<stop offset="0%" style="stop-color:rgb(80,116,125);stop-opacity: 0.217"/>
<stop offset="100%" style="stop-color:rgb(23,187,231);stop-opacity: 1"/>
</linearGradient>
<path style="stroke: none; stroke-width: 1; stroke-dasharray: none; stroke-linecap: butt; stroke-dashoffset: 0; stroke-linejoin: miter; stroke-miterlimit: 4; fill: url(#SVGID_126); fill-rule: nonzero; opacity: 1;" vector-effect="non-scaling-stroke"  transform=" translate(-339.35, -410.45)" d="M 329.9 379.5 C 325.7 379.5 321.7 380.3 317.9 381.9 C 319.9 383.79999999999995 321.5 386.09999999999997 322.4 388.59999999999997 C 324.79999999999995 387.79999999999995 327.29999999999995 387.29999999999995 329.9 387.29999999999995 C 342.59999999999997 387.29999999999995 353 397.69999999999993 353 410.4 C 353 423.09999999999997 342.6 433.5 329.9 433.5 C 328.2 433.5 326.4 433.3 324.7 432.9 C 323.2 435.4 321.2 437.59999999999997 318.8 439.4 C 322.3 440.7 326 441.4 329.8 441.4 C 346.90000000000003 441.4 360.8 427.5 360.8 410.4 C 360.9 393.4 347 379.5 329.9 379.5 z" stroke-linecap="round" />
</g>
		<g transform="matrix(1 0 0 1 -24.35 -25.6)"  >
<linearGradient id="SVGID_127" gradientUnits="userSpaceOnUse" gradientTransform="matrix(1 0 0 1 0 0)"  x1="250.9842" y1="395.2571" x2="296.0997" y2="395.2571">
<stop offset="0.09301631%" style="stop-color:rgb(173,221,159);stop-opacity: 1"/>
<stop offset="100%" style="stop-color:rgb(233,235,236);stop-opacity: 1"/>
</linearGradient>
<path style="stroke: none; stroke-width: 1; stroke-dasharray: none; stroke-linecap: butt; stroke-dashoffset: 0; stroke-linejoin: miter; stroke-miterlimit: 4; fill: url(#SVGID_127); fill-rule: nonzero; opacity: 1;" vector-effect="non-scaling-stroke"  transform=" translate(-273.55, -395.3)" d="M 259.1 407.4 C 260.6 396 270.5 387.4 282 387.4 C 285.3 387.4 288.5 388.09999999999997 291.4 389.4 C 291.4 389.4 291.4 389.4 291.4 389.4 C 291.4 389.4 292.59999999999997 385.7 296.09999999999997 382.9 C 291.9 380.7 287.09999999999997 379.5 281.99999999999994 379.5 C 264.8999999999999 379.5 250.99999999999994 393.4 250.99999999999994 410.5 C 250.99999999999994 410.7 250.99999999999994 410.9 250.99999999999994 411.1 C 252.89999999999995 410.1 254.99999999999994 409.20000000000005 257.29999999999995 408.20000000000005 L 259.1 407.4 z" stroke-linecap="round" />
</g>
		<g transform="matrix(1 0 0 1 -19.45 9.9)"  >
<linearGradient id="SVGID_128" gradientUnits="userSpaceOnUse" gradientTransform="matrix(1 0 0 1 0 0)"  x1="253.8963" y1="430.7875" x2="303.0358" y2="430.7875">
<stop offset="0.09301631%" style="stop-color:rgb(173,221,159);stop-opacity: 1"/>
<stop offset="100%" style="stop-color:rgb(233,235,236);stop-opacity: 1"/>
</linearGradient>
<path style="stroke: none; stroke-width: 1; stroke-dasharray: none; stroke-linecap: butt; stroke-dashoffset: 0; stroke-linejoin: miter; stroke-miterlimit: 4; fill: url(#SVGID_128); fill-rule: nonzero; opacity: 1;" vector-effect="non-scaling-stroke"  transform=" translate(-278.45, -430.8)" d="M 296.2 428.7 C 296.2 428.7 296.2 428.7 296.2 428.7 C 292.3 431.8 287.3 433.59999999999997 282 433.59999999999997 C 272.9 433.59999999999997 264.7 428.29999999999995 261 420.09999999999997 C 258.3 421.29999999999995 255.9 422.4 253.9 423.59999999999997 C 259 434.49999999999994 270 441.49999999999994 282 441.49999999999994 C 290.1 441.49999999999994 297.5 438.3999999999999 303 433.29999999999995 C 303 433.3 298.8 432.6 296.2 428.7 z" stroke-linecap="round" />
</g>
		<g transform="matrix(1 0 0 1 8 -9.85)"  >
<linearGradient id="SVGID_129" gradientUnits="userSpaceOnUse" gradientTransform="matrix(1 0 0 1 0 0)"  x1="298.4622" y1="411.0567" x2="313.2108" y2="411.0567">
<stop offset="0%" style="stop-color:rgb(80,116,125);stop-opacity: 0.217"/>
<stop offset="100%" style="stop-color:rgb(23,187,231);stop-opacity: 1"/>
</linearGradient>
<path style="stroke: none; stroke-width: 1; stroke-dasharray: none; stroke-linecap: butt; stroke-dashoffset: 0; stroke-linejoin: miter; stroke-miterlimit: 4; fill: url(#SVGID_129); fill-rule: nonzero; opacity: 1;" vector-effect="non-scaling-stroke"  transform=" translate(-305.9, -411.05)" d="M 306.3 411.4 C 306.3 408.2 306.90000000000003 405.09999999999997 308.2 402.2 C 308.2 402.2 309.3 399.8 310.8 397.8 L 310.8 397.8 C 311.1 397.2 311.2 396.3 311.2 395.5 C 311.2 393 309.5 390.9 306.9 390.2 C 303.9 393.3 301.7 396.9 300.29999999999995 400.8 C 299.09999999999997 404.2 298.49999999999994 407.7 298.49999999999994 411.3 C 298.49999999999994 412.3 298.59999999999997 413.40000000000003 298.69999999999993 414.5 L 298.69999999999993 414.5 L 298.79999999999995 415.1 C 299.59999999999997 421.40000000000003 302.19999999999993 427.20000000000005 306.49999999999994 431.90000000000003 C 309.29999999999995 431.6 311.79999999999995 430.00000000000006 313.29999999999995 427.70000000000005 C 309.19999999999993 423.70000000000005 306.79999999999995 418.50000000000006 306.4 412.80000000000007 C 306.3 412.3 306.3 411.8 306.3 411.4 z" stroke-linecap="round" />
</g>
</g>
</g>
</svg>