<svg width="191" height="62" viewBox="0 0 191 62" fill="none" xmlns="http://www.w3.org/2000/svg">
<g clip-path="url(#clip0_68_225)">
<path d="M15.2172 2.55776C11.6861 -0.852678 6.08797 -0.852678 2.55687 2.55776C-0.939205 6.17752 -0.838938 11.946 2.78083 15.4421C6.31193 18.8525 11.9101 18.8525 15.4412 15.4421C18.9373 11.8223 18.837 6.05383 15.2172 2.55776ZM15.0129 15.0138L15.0099 15.0108C11.6872 18.3305 6.30242 18.328 2.98271 15.0053C-0.336997 11.6826 -0.334541 6.29786 2.98819 2.97815C6.31093 -0.341554 11.6957 -0.339098 15.0154 2.9836C16.6099 4.57962 17.505 6.74381 17.5036 8.99991C17.5037 11.2555 16.6078 13.4188 15.0129 15.0138Z" fill="white"/>
<path d="M14.1176 11.5939L12.4107 9.89296C12.0233 9.50463 11.3944 9.50388 11.0061 9.89128C11.0055 9.89185 11.005 9.89239 11.0044 9.89296L10.0264 10.871C9.9524 10.9451 9.8358 10.9554 9.75002 10.8953C9.21472 10.5212 8.71364 10.1004 8.25263 9.63782C7.83974 9.22586 7.45993 8.78208 7.11666 8.3105C7.05444 8.22579 7.06348 8.10833 7.13791 8.03412L8.14022 7.0318C8.5272 6.64408 8.5272 6.01628 8.14022 5.62856L6.43326 3.92159C6.03992 3.54555 5.42034 3.54555 5.027 3.92159L4.48637 4.46222C3.66989 5.26952 3.37841 6.46825 3.7331 7.56029C3.99777 8.35926 4.3719 9.11769 4.84476 9.81397C5.27046 10.4523 5.75884 11.0465 6.30267 11.5878C6.89392 12.1833 7.54884 12.7119 8.25566 13.1642C9.03266 13.6712 9.88581 14.0506 10.7827 14.288C11.0133 14.3448 11.2499 14.3733 11.4873 14.373C12.3014 14.368 13.0802 14.0403 13.653 13.4618L14.1177 12.9971C14.5046 12.6094 14.5046 11.9816 14.1176 11.5939ZM13.6875 12.5828C13.6871 12.5832 13.6867 12.5837 13.6863 12.584L13.6893 12.5749L13.2246 13.0396C12.6275 13.6443 11.758 13.893 10.9314 13.6957C10.0987 13.4728 9.30713 13.118 8.58664 12.6448C7.91727 12.217 7.29694 11.7169 6.73691 11.1535C6.22162 10.642 5.7587 10.0803 5.35492 9.47687C4.91328 8.82757 4.56371 8.12025 4.31616 7.37503C4.03237 6.49957 4.26754 5.53893 4.92363 4.89355L5.46426 4.35292C5.61458 4.20193 5.85882 4.20139 6.00977 4.35171C6.01016 4.3521 6.01059 4.35249 6.01098 4.35292L7.71794 6.05988C7.86893 6.21019 7.86947 6.45443 7.71915 6.60539C7.71876 6.60578 7.71837 6.60617 7.71794 6.6066L6.71563 7.60891C6.42803 7.89338 6.39187 8.34542 6.6306 8.67199C6.99312 9.16952 7.39429 9.63768 7.83035 10.0722C8.31652 10.5605 8.84505 11.0047 9.40974 11.3995C9.73603 11.6271 10.1784 11.5887 10.4606 11.3084L11.4295 10.3243C11.5798 10.1733 11.8241 10.1728 11.975 10.3231C11.9754 10.3235 11.9758 10.3239 11.9763 10.3243L13.6863 12.0374C13.8373 12.1876 13.8378 12.4319 13.6875 12.5828Z" fill="white"/>
</g>
<path d="M28.1505 13.5V6.6635L26.66 7.5655V6.471L28.1505 5.58H29.146V13.5H28.1505ZM33.7138 13.665C33.2078 13.665 32.7604 13.5642 32.3718 13.3625C31.9831 13.1572 31.6788 12.873 31.4588 12.51C31.2388 12.147 31.1288 11.7235 31.1288 11.2395C31.1288 10.7665 31.2406 10.3393 31.4643 9.958C31.6916 9.57667 32.0326 9.28333 32.4873 9.078L32.4708 9.4355C32.1004 9.25583 31.8163 9.00283 31.6183 8.6765C31.4203 8.3465 31.3213 7.98167 31.3213 7.582C31.3213 7.13467 31.4239 6.74967 31.6293 6.427C31.8346 6.10433 32.1169 5.855 32.4763 5.679C32.8356 5.503 33.2481 5.415 33.7138 5.415C34.1794 5.415 34.5919 5.503 34.9513 5.679C35.3106 5.855 35.5929 6.10433 35.7983 6.427C36.0036 6.74967 36.1063 7.13467 36.1063 7.582C36.1063 7.98167 36.0128 8.34467 35.8258 8.671C35.6388 8.99367 35.3509 9.2485 34.9623 9.4355L34.9403 9.0835C35.3949 9.2815 35.7359 9.573 35.9633 9.958C36.1943 10.3393 36.3098 10.7665 36.3098 11.2395C36.3098 11.7235 36.1979 12.147 35.9743 12.51C35.7543 12.873 35.4481 13.1572 35.0558 13.3625C34.6671 13.5642 34.2198 13.665 33.7138 13.665ZM33.7138 12.73C34.1758 12.73 34.5498 12.6035 34.8358 12.3505C35.1254 12.0938 35.2703 11.7235 35.2703 11.2395C35.2703 10.7518 35.1273 10.3815 34.8413 10.1285C34.5589 9.87183 34.1831 9.7435 33.7138 9.7435C33.2481 9.7435 32.8723 9.87183 32.5863 10.1285C32.3039 10.3815 32.1628 10.7518 32.1628 11.2395C32.1628 11.7235 32.3058 12.0938 32.5918 12.3505C32.8778 12.6035 33.2518 12.73 33.7138 12.73ZM33.7138 8.803C34.1171 8.803 34.4434 8.70217 34.6928 8.5005C34.9421 8.29517 35.0668 7.989 35.0668 7.582C35.0668 7.175 34.9421 6.87067 34.6928 6.669C34.4434 6.46367 34.1171 6.361 33.7138 6.361C33.3141 6.361 32.9878 6.46367 32.7348 6.669C32.4854 6.87067 32.3608 7.175 32.3608 7.582C32.3608 7.989 32.4854 8.29517 32.7348 8.5005C32.9878 8.70217 33.3141 8.803 33.7138 8.803ZM40.4108 13.665C39.8974 13.665 39.4391 13.5495 39.0358 13.3185C38.6361 13.0838 38.3189 12.7667 38.0843 12.367C37.8533 11.9637 37.7378 11.5053 37.7378 10.992V8.088C37.7378 7.57467 37.8533 7.11633 38.0843 6.713C38.3189 6.30967 38.6361 5.9925 39.0358 5.7615C39.4391 5.5305 39.8974 5.415 40.4108 5.415C40.9241 5.415 41.3824 5.5305 41.7858 5.7615C42.1891 5.9925 42.5063 6.30967 42.7373 6.713C42.9683 7.11633 43.0838 7.57467 43.0838 8.088V10.992C43.0838 11.5053 42.9683 11.9637 42.7373 12.367C42.5063 12.7667 42.1891 13.0838 41.7858 13.3185C41.3824 13.5495 40.9241 13.665 40.4108 13.665ZM40.4108 12.7245C40.7224 12.7245 41.0048 12.6493 41.2578 12.499C41.5108 12.3487 41.7124 12.147 41.8628 11.894C42.0131 11.6373 42.0883 11.355 42.0883 11.047V8.0275C42.0883 7.71583 42.0131 7.4335 41.8628 7.1805C41.7124 6.9275 41.5108 6.72583 41.2578 6.5755C41.0048 6.42517 40.7224 6.35 40.4108 6.35C40.1028 6.35 39.8204 6.42517 39.5638 6.5755C39.3108 6.72583 39.1091 6.9275 38.9588 7.1805C38.8084 7.4335 38.7333 7.71583 38.7333 8.0275V11.047C38.7333 11.355 38.8084 11.6373 38.9588 11.894C39.1091 12.147 39.3108 12.3487 39.5638 12.499C39.8204 12.6493 40.1028 12.7245 40.4108 12.7245ZM47.2965 13.665C46.7832 13.665 46.3248 13.5495 45.9215 13.3185C45.5218 13.0838 45.2047 12.7667 44.97 12.367C44.739 11.9637 44.6235 11.5053 44.6235 10.992V8.088C44.6235 7.57467 44.739 7.11633 44.97 6.713C45.2047 6.30967 45.5218 5.9925 45.9215 5.7615C46.3248 5.5305 46.7832 5.415 47.2965 5.415C47.8098 5.415 48.2682 5.5305 48.6715 5.7615C49.0748 5.9925 49.392 6.30967 49.623 6.713C49.854 7.11633 49.9695 7.57467 49.9695 8.088V10.992C49.9695 11.5053 49.854 11.9637 49.623 12.367C49.392 12.7667 49.0748 13.0838 48.6715 13.3185C48.2682 13.5495 47.8098 13.665 47.2965 13.665ZM47.2965 12.7245C47.6082 12.7245 47.8905 12.6493 48.1435 12.499C48.3965 12.3487 48.5982 12.147 48.7485 11.894C48.8988 11.6373 48.974 11.355 48.974 11.047V8.0275C48.974 7.71583 48.8988 7.4335 48.7485 7.1805C48.5982 6.9275 48.3965 6.72583 48.1435 6.5755C47.8905 6.42517 47.6082 6.35 47.2965 6.35C46.9885 6.35 46.7062 6.42517 46.4495 6.5755C46.1965 6.72583 45.9948 6.9275 45.8445 7.1805C45.6942 7.4335 45.619 7.71583 45.619 8.0275V11.047C45.619 11.355 45.6942 11.6373 45.8445 11.894C45.9948 12.147 46.1965 12.3487 46.4495 12.499C46.7062 12.6493 46.9885 12.7245 47.2965 12.7245ZM56.3019 5.4205C56.8079 5.4205 57.2644 5.5415 57.6714 5.7835C58.0784 6.0255 58.4011 6.3555 58.6394 6.7735C58.8814 7.1915 59.0024 7.66633 59.0024 8.198V10.8325C59.0024 11.3862 58.8832 11.8757 58.6449 12.301C58.4066 12.7263 58.0766 13.06 57.6549 13.302C57.2369 13.544 56.7566 13.665 56.2139 13.665C55.7812 13.665 55.3761 13.5752 54.9984 13.3955C54.6244 13.2158 54.3072 12.961 54.0469 12.631L54.7784 11.982C54.9397 12.2093 55.1469 12.3927 55.3999 12.532C55.6529 12.6677 55.9242 12.7355 56.2139 12.7355C56.5659 12.7355 56.8757 12.6512 57.1434 12.4825C57.4147 12.3138 57.6256 12.0938 57.7759 11.8225C57.9299 11.5512 58.0069 11.2578 58.0069 10.9425V9.353L58.2214 9.595C57.9941 9.925 57.7026 10.189 57.3469 10.387C56.9912 10.585 56.6044 10.684 56.1864 10.684C55.6951 10.684 55.2551 10.5685 54.8664 10.3375C54.4777 10.1065 54.1697 9.79483 53.9424 9.4025C53.7151 9.0065 53.6014 8.56283 53.6014 8.0715C53.6014 7.58017 53.7242 7.13467 53.9699 6.735C54.2156 6.33167 54.5419 6.01267 54.9489 5.778C55.3596 5.53967 55.8106 5.4205 56.3019 5.4205ZM56.3019 6.3665C55.9866 6.3665 55.6987 6.4435 55.4384 6.5975C55.1817 6.74783 54.9764 6.95317 54.8224 7.2135C54.6684 7.47017 54.5914 7.75617 54.5914 8.0715C54.5914 8.38683 54.6666 8.67467 54.8169 8.935C54.9709 9.19167 55.1762 9.397 55.4329 9.551C55.6932 9.705 55.9811 9.782 56.2964 9.782C56.6117 9.782 56.8996 9.705 57.1599 9.551C57.4202 9.397 57.6256 9.19167 57.7759 8.935C57.9299 8.67467 58.0069 8.38683 58.0069 8.0715C58.0069 7.75983 57.9299 7.47567 57.7759 7.219C57.6256 6.95867 57.4202 6.7515 57.1599 6.5975C56.9032 6.4435 56.6172 6.3665 56.3019 6.3665ZM63.2439 13.665C62.7416 13.665 62.2851 13.544 61.8744 13.302C61.4674 13.06 61.1429 12.73 60.9009 12.312C60.6626 11.8903 60.5434 11.4155 60.5434 10.8875V8.253C60.5434 7.69933 60.6626 7.20983 60.9009 6.7845C61.1429 6.3555 61.4729 6.02183 61.8909 5.7835C62.3126 5.5415 62.7929 5.4205 63.3319 5.4205C63.7683 5.4205 64.1734 5.51033 64.5474 5.69C64.9251 5.866 65.2423 6.12083 65.4989 6.4545L64.7674 7.1035C64.6098 6.8725 64.4044 6.68917 64.1514 6.5535C63.8984 6.41783 63.6253 6.35 63.3319 6.35C62.9836 6.35 62.6738 6.43433 62.4024 6.603C62.1348 6.768 61.9239 6.988 61.7699 7.263C61.6159 7.53433 61.5389 7.82767 61.5389 8.143V9.7325L61.3244 9.4905C61.5554 9.1605 61.8488 8.8965 62.2044 8.6985C62.5601 8.5005 62.9451 8.4015 63.3594 8.4015C63.8508 8.4015 64.2908 8.517 64.6794 8.748C65.0718 8.979 65.3798 9.2925 65.6034 9.6885C65.8308 10.0808 65.9444 10.5227 65.9444 11.014C65.9444 11.5053 65.8216 11.9508 65.5759 12.3505C65.3303 12.7502 65.0021 13.0692 64.5914 13.3075C64.1844 13.5458 63.7353 13.665 63.2439 13.665ZM63.2439 12.719C63.5593 12.719 63.8471 12.6438 64.1074 12.4935C64.3678 12.3395 64.5731 12.1342 64.7234 11.8775C64.8774 11.6172 64.9544 11.3293 64.9544 11.014C64.9544 10.6987 64.8774 10.4108 64.7234 10.1505C64.5731 9.89017 64.3678 9.68483 64.1074 9.5345C63.8508 9.3805 63.5648 9.3035 63.2494 9.3035C62.9341 9.3035 62.6463 9.3805 62.3859 9.5345C62.1293 9.68483 61.9239 9.89017 61.7699 10.1505C61.6159 10.4108 61.5389 10.6987 61.5389 11.014C61.5389 11.3257 61.6141 11.6117 61.7644 11.872C61.9184 12.1287 62.1238 12.334 62.3804 12.488C62.6408 12.642 62.9286 12.719 63.2439 12.719ZM67.1555 13.4945L67.161 12.6145L70.6755 9.452C70.9688 9.188 71.165 8.93867 71.264 8.704C71.3666 8.46567 71.418 8.22183 71.418 7.9725C71.418 7.66817 71.3483 7.39317 71.209 7.1475C71.0696 6.90183 70.879 6.7075 70.637 6.5645C70.3986 6.4215 70.1273 6.35 69.823 6.35C69.5076 6.35 69.2271 6.42517 68.9815 6.5755C68.7358 6.72217 68.5415 6.91833 68.3985 7.164C68.2591 7.40967 68.1913 7.67733 68.195 7.967H67.194C67.194 7.46833 67.3095 7.02833 67.5405 6.647C67.7715 6.262 68.085 5.96133 68.481 5.745C68.8806 5.525 69.3335 5.415 69.8395 5.415C70.3308 5.415 70.7708 5.52867 71.1595 5.756C71.5481 5.97967 71.8543 6.28583 72.078 6.6745C72.3053 7.0595 72.419 7.49583 72.419 7.9835C72.419 8.32817 72.375 8.627 72.287 8.88C72.2026 9.133 72.0706 9.36767 71.891 9.584C71.7113 9.79667 71.4858 10.024 71.2145 10.266L68.294 12.8895L68.1675 12.5595H72.419V13.4945H67.1555ZM78.61 13.665C78.0967 13.665 77.6383 13.5495 77.235 13.3185C76.8353 13.0838 76.5182 12.7667 76.2835 12.367C76.0525 11.9637 75.937 11.5053 75.937 10.992V8.088C75.937 7.57467 76.0525 7.11633 76.2835 6.713C76.5182 6.30967 76.8353 5.9925 77.235 5.7615C77.6383 5.5305 78.0967 5.415 78.61 5.415C79.1233 5.415 79.5817 5.5305 79.985 5.7615C80.3883 5.9925 80.7055 6.30967 80.9365 6.713C81.1675 7.11633 81.283 7.57467 81.283 8.088V10.992C81.283 11.5053 81.1675 11.9637 80.9365 12.367C80.7055 12.7667 80.3883 13.0838 79.985 13.3185C79.5817 13.5495 79.1233 13.665 78.61 13.665ZM78.61 12.7245C78.9217 12.7245 79.204 12.6493 79.457 12.499C79.71 12.3487 79.9117 12.147 80.062 11.894C80.2123 11.6373 80.2875 11.355 80.2875 11.047V8.0275C80.2875 7.71583 80.2123 7.4335 80.062 7.1805C79.9117 6.9275 79.71 6.72583 79.457 6.5755C79.204 6.42517 78.9217 6.35 78.61 6.35C78.302 6.35 78.0197 6.42517 77.763 6.5755C77.51 6.72583 77.3083 6.9275 77.158 7.1805C77.0077 7.4335 76.9325 7.71583 76.9325 8.0275V11.047C76.9325 11.355 77.0077 11.6373 77.158 11.894C77.3083 12.147 77.51 12.3487 77.763 12.499C78.0197 12.6493 78.302 12.7245 78.61 12.7245ZM85.4957 13.665C84.9824 13.665 84.5241 13.5495 84.1207 13.3185C83.7211 13.0838 83.4039 12.7667 83.1692 12.367C82.9382 11.9637 82.8227 11.5053 82.8227 10.992V8.088C82.8227 7.57467 82.9382 7.11633 83.1692 6.713C83.4039 6.30967 83.7211 5.9925 84.1207 5.7615C84.5241 5.5305 84.9824 5.415 85.4957 5.415C86.0091 5.415 86.4674 5.5305 86.8707 5.7615C87.2741 5.9925 87.5912 6.30967 87.8222 6.713C88.0532 7.11633 88.1687 7.57467 88.1687 8.088V10.992C88.1687 11.5053 88.0532 11.9637 87.8222 12.367C87.5912 12.7667 87.2741 13.0838 86.8707 13.3185C86.4674 13.5495 86.0091 13.665 85.4957 13.665ZM85.4957 12.7245C85.8074 12.7245 86.0897 12.6493 86.3427 12.499C86.5957 12.3487 86.7974 12.147 86.9477 11.894C87.0981 11.6373 87.1732 11.355 87.1732 11.047V8.0275C87.1732 7.71583 87.0981 7.4335 86.9477 7.1805C86.7974 6.9275 86.5957 6.72583 86.3427 6.5755C86.0897 6.42517 85.8074 6.35 85.4957 6.35C85.1877 6.35 84.9054 6.42517 84.6487 6.5755C84.3957 6.72583 84.1941 6.9275 84.0437 7.1805C83.8934 7.4335 83.8182 7.71583 83.8182 8.0275V11.047C83.8182 11.355 83.8934 11.6373 84.0437 11.894C84.1941 12.147 84.3957 12.3487 84.6487 12.499C84.9054 12.6493 85.1877 12.7245 85.4957 12.7245ZM92.3815 13.665C91.8681 13.665 91.4098 13.5495 91.0065 13.3185C90.6068 13.0838 90.2896 12.7667 90.055 12.367C89.824 11.9637 89.7085 11.5053 89.7085 10.992V8.088C89.7085 7.57467 89.824 7.11633 90.055 6.713C90.2896 6.30967 90.6068 5.9925 91.0065 5.7615C91.4098 5.5305 91.8681 5.415 92.3815 5.415C92.8948 5.415 93.3531 5.5305 93.7565 5.7615C94.1598 5.9925 94.477 6.30967 94.708 6.713C94.939 7.11633 95.0545 7.57467 95.0545 8.088V10.992C95.0545 11.5053 94.939 11.9637 94.708 12.367C94.477 12.7667 94.1598 13.0838 93.7565 13.3185C93.3531 13.5495 92.8948 13.665 92.3815 13.665ZM92.3815 12.7245C92.6931 12.7245 92.9755 12.6493 93.2285 12.499C93.4815 12.3487 93.6831 12.147 93.8335 11.894C93.9838 11.6373 94.059 11.355 94.059 11.047V8.0275C94.059 7.71583 93.9838 7.4335 93.8335 7.1805C93.6831 6.9275 93.4815 6.72583 93.2285 6.5755C92.9755 6.42517 92.6931 6.35 92.3815 6.35C92.0735 6.35 91.7911 6.42517 91.5345 6.5755C91.2815 6.72583 91.0798 6.9275 90.9295 7.1805C90.7791 7.4335 90.704 7.71583 90.704 8.0275V11.047C90.704 11.355 90.7791 11.6373 90.9295 11.894C91.0798 12.147 91.2815 12.3487 91.5345 12.499C91.7911 12.6493 92.0735 12.7245 92.3815 12.7245Z" fill="white"/>
<mask id="path-4-inside-1_68_225" fill="white">
<path d="M18 31C18 35.9706 13.9706 40 9 40C4.02944 40 0 35.9706 0 31C0 28.8716 0.738808 26.9158 1.97396 25.375C3.62334 23.3175 6.15782 22 9 22C13.9706 22 18 26.0294 18 31Z"/>
</mask>
<path d="M9 40L8.8882 40.2236L9.00787 40.2834L9.12403 40.2171L9 40ZM9 22L9.12403 21.7829L9.00787 21.7166L8.8882 21.7764L9 22ZM1.72596 25.3434C1.68988 25.6268 1.82489 25.9629 2.07475 26.2843C2.33168 26.6148 2.73467 26.9633 3.30447 27.2809C4.44487 27.9164 6.27016 28.4375 9 28.4375V27.9375C6.32984 27.9375 4.59436 27.4273 3.54787 26.8441C3.02423 26.5523 2.67724 26.2446 2.46948 25.9774C2.25467 25.7011 2.21029 25.4982 2.22196 25.4066L1.72596 25.3434ZM9 28.4375C11.7292 28.4375 13.4656 27.9166 14.5289 27.2767C15.5808 26.6436 16 25.8726 16 25.375H15.5C15.5 25.6274 15.2442 26.2627 14.2711 26.8483C13.3094 27.4271 11.6708 27.9375 9 27.9375V28.4375ZM8.75 22V34.9375H9.25V22H8.75ZM8.75 34.9375V40H9.25V34.9375H8.75ZM2.4 36.825C3.10034 36.2997 5.44553 35.1875 9 35.1875V34.6875C5.35447 34.6875 2.89966 35.8253 2.1 36.425L2.4 36.825ZM9 35.1875C9.5446 35.1875 10.6531 35.27 11.9041 35.5201C13.1567 35.7707 14.5314 36.1854 15.6214 36.8394L15.8786 36.4106C14.7186 35.7146 13.2808 35.2856 12.0022 35.0299C10.7219 34.7738 9.5804 34.6875 9 34.6875V35.1875ZM0 31.25H4.5V30.75H0V31.25ZM8.8882 21.7764C7.30728 22.5669 4.25 25.5012 4.25 31H4.75C4.75 25.6988 7.69272 22.9331 9.1118 22.2236L8.8882 21.7764ZM4.5 31.25H13.5V30.75H4.5V31.25ZM13.5 31.25H18V30.75H13.5V31.25ZM8.87597 22.2171C10.1109 22.9227 12.8071 25.6955 13.2509 31.0208L13.7491 30.9792C13.2929 25.5045 10.5141 22.5773 9.12403 21.7829L8.87597 22.2171ZM9.1118 39.7764C7.69272 39.0669 4.75 36.3012 4.75 31H4.25C4.25 36.4988 7.30728 39.4331 8.8882 40.2236L9.1118 39.7764ZM9.12403 40.2171C10.5141 39.4227 13.2929 36.4955 13.7491 31.0208L13.2509 30.9792C12.8071 36.3045 10.1109 39.0773 8.87597 39.7829L9.12403 40.2171ZM1.97396 25.375L2.36408 25.6877L1.97396 25.375ZM17.5 31C17.5 35.6944 13.6944 39.5 9 39.5V40.5C14.2467 40.5 18.5 36.2467 18.5 31H17.5ZM9 39.5C4.30558 39.5 0.5 35.6944 0.5 31H-0.5C-0.5 36.2467 3.75329 40.5 9 40.5V39.5ZM9 22.5C13.6944 22.5 17.5 26.3056 17.5 31H18.5C18.5 25.7533 14.2467 21.5 9 21.5V22.5ZM0.5 31C0.5 28.9894 1.19748 27.143 2.36408 25.6877L1.58383 25.0623C0.28014 26.6886 -0.5 28.7539 -0.5 31H0.5ZM2.36408 25.6877C3.92265 23.7435 6.31594 22.5 9 22.5V21.5C5.99969 21.5 3.32403 22.8914 1.58383 25.0623L2.36408 25.6877Z" fill="white" mask="url(#path-4-inside-1_68_225)"/>
<path d="M28.376 35.5L26.22 29.56H27.21L28.8765 34.2515L30.5375 29.56H31.533L29.377 35.5H28.376ZM33.8833 35.665C33.4396 35.665 33.0675 35.5843 32.7668 35.423C32.4698 35.258 32.2443 35.0417 32.0903 34.774C31.94 34.5063 31.8648 34.213 31.8648 33.894C31.8648 33.5823 31.9235 33.3128 32.0408 33.0855C32.1618 32.8545 32.3305 32.6638 32.5468 32.5135C32.7631 32.3595 33.0216 32.2385 33.3223 32.1505C33.6046 32.0735 33.92 32.0075 34.2683 31.9525C34.6203 31.8938 34.976 31.8407 35.3353 31.793C35.6946 31.7453 36.0301 31.6995 36.3418 31.6555L35.9898 31.859C36.0008 31.331 35.8945 30.9405 35.6708 30.6875C35.4508 30.4345 35.0695 30.308 34.5268 30.308C34.1675 30.308 33.8521 30.3905 33.5808 30.5555C33.3131 30.7168 33.1243 30.9808 33.0143 31.3475L32.0848 31.067C32.2278 30.5463 32.5046 30.1375 32.9153 29.8405C33.326 29.5435 33.8668 29.395 34.5378 29.395C35.0768 29.395 35.5388 29.4922 35.9238 29.6865C36.3125 29.8772 36.5911 30.1668 36.7598 30.5555C36.8441 30.7388 36.8973 30.9387 36.9193 31.155C36.9413 31.3677 36.9523 31.5913 36.9523 31.826V35.5H36.0833V34.0755L36.2868 34.2075C36.0631 34.6878 35.7496 35.0508 35.3463 35.2965C34.9466 35.5422 34.459 35.665 33.8833 35.665ZM34.0318 34.8455C34.3838 34.8455 34.6881 34.7832 34.9448 34.6585C35.2051 34.5302 35.4141 34.3633 35.5718 34.158C35.7295 33.949 35.8321 33.7217 35.8798 33.476C35.9348 33.2927 35.9641 33.0892 35.9678 32.8655C35.9751 32.6382 35.9788 32.464 35.9788 32.343L36.3198 32.4915C36.0008 32.5355 35.6873 32.5777 35.3793 32.618C35.0713 32.6583 34.7798 32.7023 34.5048 32.75C34.2298 32.794 33.9823 32.8472 33.7623 32.9095C33.601 32.9608 33.4488 33.0268 33.3058 33.1075C33.1665 33.1882 33.0528 33.2927 32.9648 33.421C32.8805 33.5457 32.8383 33.7015 32.8383 33.8885C32.8383 34.0498 32.8786 34.2038 32.9593 34.3505C33.0436 34.4972 33.172 34.6163 33.3443 34.708C33.5203 34.7997 33.7495 34.8455 34.0318 34.8455ZM38.4923 35.5V27.415H39.4713V35.5H38.4923ZM41.1161 35.5L41.1216 27.58H42.1116V32.42L44.6031 29.56H45.8736L43.2501 32.53L46.1816 35.5H44.8121L42.1116 32.64V35.5H41.1161ZM50.0455 35.5C49.6935 35.5697 49.3452 35.5972 49.0005 35.5825C48.6595 35.5715 48.3552 35.5037 48.0875 35.379C47.8198 35.2507 47.6163 35.0527 47.477 34.785C47.3597 34.5503 47.2955 34.3138 47.2845 34.0755C47.2772 33.8335 47.2735 33.5603 47.2735 33.256V27.91H48.2525V33.212C48.2525 33.454 48.2543 33.6612 48.258 33.8335C48.2653 34.0058 48.3038 34.1543 48.3735 34.279C48.5055 34.5137 48.7145 34.6512 49.0005 34.6915C49.2902 34.7318 49.6385 34.7208 50.0455 34.6585V35.5ZM46.069 30.3685V29.56H50.0455V30.3685H46.069ZM51.2514 35.5V29.56H52.1259V30.9955L51.9829 30.8085C52.0526 30.6252 52.1424 30.4565 52.2524 30.3025C52.3661 30.1485 52.4926 30.022 52.6319 29.923C52.7859 29.7983 52.9601 29.703 53.1544 29.637C53.3488 29.571 53.5468 29.5325 53.7484 29.5215C53.9501 29.5068 54.1389 29.5197 54.3149 29.56V30.4785C54.1096 30.4235 53.8841 30.4088 53.6384 30.4345C53.3928 30.4602 53.1654 30.55 52.9564 30.704C52.7658 30.8397 52.6173 31.0047 52.5109 31.199C52.4083 31.3933 52.3368 31.6042 52.2964 31.8315C52.2561 32.0552 52.2359 32.2843 52.2359 32.519V35.5H51.2514ZM56.8501 35.665C56.4064 35.665 56.0343 35.5843 55.7336 35.423C55.4366 35.258 55.2111 35.0417 55.0571 34.774C54.9068 34.5063 54.8316 34.213 54.8316 33.894C54.8316 33.5823 54.8903 33.3128 55.0076 33.0855C55.1286 32.8545 55.2973 32.6638 55.5136 32.5135C55.7299 32.3595 55.9884 32.2385 56.2891 32.1505C56.5714 32.0735 56.8868 32.0075 57.2351 31.9525C57.5871 31.8938 57.9428 31.8407 58.3021 31.793C58.6614 31.7453 58.9969 31.6995 59.3086 31.6555L58.9566 31.859C58.9676 31.331 58.8613 30.9405 58.6376 30.6875C58.4176 30.4345 58.0363 30.308 57.4936 30.308C57.1343 30.308 56.8189 30.3905 56.5476 30.5555C56.2799 30.7168 56.0911 30.9808 55.9811 31.3475L55.0516 31.067C55.1946 30.5463 55.4714 30.1375 55.8821 29.8405C56.2928 29.5435 56.8336 29.395 57.5046 29.395C58.0436 29.395 58.5056 29.4922 58.8906 29.6865C59.2793 29.8772 59.5579 30.1668 59.7266 30.5555C59.8109 30.7388 59.8641 30.9387 59.8861 31.155C59.9081 31.3677 59.9191 31.5913 59.9191 31.826V35.5H59.0501V34.0755L59.2536 34.2075C59.0299 34.6878 58.7164 35.0508 58.3131 35.2965C57.9134 35.5422 57.4258 35.665 56.8501 35.665ZM56.9986 34.8455C57.3506 34.8455 57.6549 34.7832 57.9116 34.6585C58.1719 34.5302 58.3809 34.3633 58.5386 34.158C58.6963 33.949 58.7989 33.7217 58.8466 33.476C58.9016 33.2927 58.9309 33.0892 58.9346 32.8655C58.9419 32.6382 58.9456 32.464 58.9456 32.343L59.2866 32.4915C58.9676 32.5355 58.6541 32.5777 58.3461 32.618C58.0381 32.6583 57.7466 32.7023 57.4716 32.75C57.1966 32.794 56.9491 32.8472 56.7291 32.9095C56.5678 32.9608 56.4156 33.0268 56.2726 33.1075C56.1333 33.1882 56.0196 33.2927 55.9316 33.421C55.8473 33.5457 55.8051 33.7015 55.8051 33.8885C55.8051 34.0498 55.8454 34.2038 55.9261 34.3505C56.0104 34.4972 56.1388 34.6163 56.3111 34.708C56.4871 34.7997 56.7163 34.8455 56.9986 34.8455ZM63.6811 35.665C63.1274 35.665 62.6526 35.5275 62.2566 35.2525C61.8606 34.9738 61.5544 34.598 61.3381 34.125C61.1254 33.652 61.0191 33.1185 61.0191 32.5245C61.0191 31.9305 61.1254 31.397 61.3381 30.924C61.5544 30.451 61.8606 30.0788 62.2566 29.8075C62.6526 29.5325 63.1256 29.395 63.6756 29.395C64.2366 29.395 64.7078 29.5307 65.0891 29.802C65.4704 30.0733 65.7583 30.4455 65.9526 30.9185C66.1506 31.3915 66.2496 31.9268 66.2496 32.5245C66.2496 33.1148 66.1506 33.6483 65.9526 34.125C65.7583 34.598 65.4704 34.9738 65.0891 35.2525C64.7078 35.5275 64.2384 35.665 63.6811 35.665ZM63.8021 34.7685C64.2018 34.7685 64.5299 34.6732 64.7866 34.4825C65.0433 34.2882 65.2321 34.0223 65.3531 33.685C65.4778 33.344 65.5401 32.9572 65.5401 32.5245C65.5401 32.0845 65.4778 31.6977 65.3531 31.364C65.2321 31.0267 65.0451 30.7645 64.7921 30.5775C64.5391 30.3868 64.2183 30.2915 63.8296 30.2915C63.4263 30.2915 63.0926 30.3905 62.8286 30.5885C62.5683 30.7865 62.3739 31.0542 62.2456 31.3915C62.1209 31.7288 62.0586 32.1065 62.0586 32.5245C62.0586 32.9462 62.1228 33.3275 62.2511 33.6685C62.3794 34.0058 62.5719 34.2735 62.8286 34.4715C63.0889 34.6695 63.4134 34.7685 63.8021 34.7685ZM65.5401 35.5V31.1275H65.4301V27.58H66.4146V35.5H65.5401ZM70.5295 35.665C69.9465 35.665 69.4369 35.5367 69.0005 35.28C68.5679 35.0197 68.2305 34.6585 67.9885 34.1965C67.7465 33.7308 67.6255 33.1882 67.6255 32.5685C67.6255 31.9195 67.7447 31.3585 67.983 30.8855C68.2214 30.4088 68.5532 30.0422 68.9785 29.7855C69.4075 29.5252 69.9099 29.395 70.4855 29.395C71.0832 29.395 71.591 29.5325 72.009 29.8075C72.4307 30.0825 72.746 30.4748 72.955 30.9845C73.1677 31.4942 73.2594 32.101 73.23 32.805H72.24V32.453C72.229 31.7233 72.0805 31.1788 71.7945 30.8195C71.5085 30.4565 71.0832 30.275 70.5185 30.275C69.9135 30.275 69.4534 30.4693 69.138 30.858C68.8227 31.2467 68.665 31.804 68.665 32.53C68.665 33.2303 68.8227 33.773 69.138 34.158C69.4534 34.543 69.9025 34.7355 70.4855 34.7355C70.8779 34.7355 71.2189 34.6457 71.5085 34.466C71.7982 34.2863 72.0255 34.0278 72.1905 33.6905L73.131 34.015C72.9 34.5393 72.5517 34.9463 72.086 35.236C71.624 35.522 71.1052 35.665 70.5295 35.665ZM68.335 32.805V32.0185H72.724V32.805H68.335ZM74.4157 35.5V34.422H75.4937V35.5H74.4157ZM79.7071 35.665C79.1057 35.665 78.5942 35.5312 78.1726 35.2635C77.7546 34.9922 77.4356 34.62 77.2156 34.147C76.9956 33.674 76.8819 33.135 76.8746 32.53C76.8819 31.9103 76.9974 31.3658 77.2211 30.8965C77.4484 30.4235 77.7729 30.055 78.1946 29.791C78.6162 29.527 79.1241 29.395 79.7181 29.395C80.3451 29.395 80.8841 29.549 81.3351 29.857C81.7897 30.165 82.0941 30.5867 82.2481 31.122L81.2801 31.4135C81.1554 31.0688 80.9519 30.8012 80.6696 30.6105C80.3909 30.4198 80.0701 30.3245 79.7071 30.3245C79.3001 30.3245 78.9646 30.4198 78.7006 30.6105C78.4366 30.7975 78.2404 31.0578 78.1121 31.3915C77.9837 31.7215 77.9177 32.101 77.9141 32.53C77.9214 33.19 78.0736 33.7235 78.3706 34.1305C78.6712 34.5338 79.1167 34.7355 79.7071 34.7355C80.0957 34.7355 80.4184 34.6475 80.6751 34.4715C80.9317 34.2918 81.1261 34.0333 81.2581 33.696L82.2481 33.9545C82.0427 34.5082 81.7219 34.9317 81.2856 35.225C80.8492 35.5183 80.3231 35.665 79.7071 35.665ZM85.7395 35.665C85.1491 35.665 84.6395 35.5312 84.2105 35.2635C83.7851 34.9958 83.457 34.6255 83.226 34.1525C82.995 33.6795 82.8795 33.1368 82.8795 32.5245C82.8795 31.9012 82.9968 31.3548 83.2315 30.8855C83.4661 30.4162 83.798 30.0513 84.227 29.791C84.656 29.527 85.1601 29.395 85.7395 29.395C86.3335 29.395 86.845 29.5288 87.274 29.7965C87.703 30.0605 88.0311 30.429 88.2585 30.902C88.4895 31.3713 88.605 31.9122 88.605 32.5245C88.605 33.1442 88.4895 33.6905 88.2585 34.1635C88.0275 34.6328 87.6975 35.0013 87.2685 35.269C86.8395 35.533 86.3298 35.665 85.7395 35.665ZM85.7395 34.7355C86.3555 34.7355 86.8138 34.5302 87.1145 34.1195C87.4151 33.7088 87.5655 33.1772 87.5655 32.5245C87.5655 31.8535 87.4133 31.32 87.109 30.924C86.8046 30.5243 86.3481 30.3245 85.7395 30.3245C85.3251 30.3245 84.9841 30.418 84.7165 30.605C84.4488 30.792 84.249 31.0505 84.117 31.3805C83.985 31.7105 83.919 32.0918 83.919 32.5245C83.919 33.1918 84.073 33.7272 84.381 34.1305C84.689 34.5338 85.1418 34.7355 85.7395 34.7355ZM96.9164 35.5L96.9219 31.6995C96.9219 31.2558 96.8027 30.9093 96.5644 30.66C96.3297 30.407 96.0236 30.2805 95.6459 30.2805C95.4259 30.2805 95.2169 30.3318 95.0189 30.4345C94.8209 30.5335 94.6596 30.6912 94.5349 30.9075C94.4102 31.1202 94.3479 31.3933 94.3479 31.727L93.8309 31.518C93.8236 31.0963 93.9097 30.7278 94.0894 30.4125C94.2727 30.0935 94.5221 29.846 94.8374 29.67C95.1527 29.494 95.5084 29.406 95.9044 29.406C96.5241 29.406 97.0117 29.5948 97.3674 29.9725C97.7231 30.3465 97.9009 30.8507 97.9009 31.485L97.8954 35.5H96.9164ZM89.8104 35.5V29.56H90.6849V31.1495H90.7949V35.5H89.8104ZM93.3689 35.5L93.3744 31.738C93.3744 31.2833 93.2571 30.9277 93.0224 30.671C92.7877 30.4107 92.4761 30.2805 92.0874 30.2805C91.7024 30.2805 91.3907 30.4125 91.1524 30.6765C90.9141 30.9405 90.7949 31.2907 90.7949 31.727L90.2779 31.419C90.2779 31.034 90.3696 30.6893 90.5529 30.385C90.7362 30.0807 90.9856 29.8423 91.3009 29.67C91.6162 29.494 91.9737 29.406 92.3734 29.406C92.7731 29.406 93.1214 29.4903 93.4184 29.659C93.7154 29.8277 93.9446 30.0697 94.1059 30.385C94.2672 30.6967 94.3479 31.0688 94.3479 31.5015L94.3424 35.5H93.3689ZM99.5095 35.5V34.422H100.587V35.5H99.5095ZM103.987 35.665C103.543 35.665 103.171 35.5843 102.87 35.423C102.573 35.258 102.348 35.0417 102.194 34.774C102.043 34.5063 101.968 34.213 101.968 33.894C101.968 33.5823 102.027 33.3128 102.144 33.0855C102.265 32.8545 102.434 32.6638 102.65 32.5135C102.867 32.3595 103.125 32.2385 103.426 32.1505C103.708 32.0735 104.023 32.0075 104.372 31.9525C104.724 31.8938 105.079 31.8407 105.439 31.793C105.798 31.7453 106.134 31.6995 106.445 31.6555L106.093 31.859C106.104 31.331 105.998 30.9405 105.774 30.6875C105.554 30.4345 105.173 30.308 104.63 30.308C104.271 30.308 103.956 30.3905 103.684 30.5555C103.417 30.7168 103.228 30.9808 103.118 31.3475L102.188 31.067C102.331 30.5463 102.608 30.1375 103.019 29.8405C103.429 29.5435 103.97 29.395 104.641 29.395C105.18 29.395 105.642 29.4922 106.027 29.6865C106.416 29.8772 106.695 30.1668 106.863 30.5555C106.948 30.7388 107.001 30.9387 107.023 31.155C107.045 31.3677 107.056 31.5913 107.056 31.826V35.5H106.187V34.0755L106.39 34.2075C106.167 34.6878 105.853 35.0508 105.45 35.2965C105.05 35.5422 104.562 35.665 103.987 35.665ZM104.135 34.8455C104.487 34.8455 104.792 34.7832 105.048 34.6585C105.309 34.5302 105.518 34.3633 105.675 34.158C105.833 33.949 105.936 33.7217 105.983 33.476C106.038 33.2927 106.068 33.0892 106.071 32.8655C106.079 32.6382 106.082 32.464 106.082 32.343L106.423 32.4915C106.104 32.5355 105.791 32.5777 105.483 32.618C105.175 32.6583 104.883 32.7023 104.608 32.75C104.333 32.794 104.086 32.8472 103.866 32.9095C103.704 32.9608 103.552 33.0268 103.409 33.1075C103.27 33.1882 103.156 33.2927 103.068 33.421C102.984 33.5457 102.942 33.7015 102.942 33.8885C102.942 34.0498 102.982 34.2038 103.063 34.3505C103.147 34.4972 103.275 34.6163 103.448 34.708C103.624 34.7997 103.853 34.8455 104.135 34.8455ZM110.741 35.654C110.359 35.654 110.031 35.5935 109.756 35.4725C109.485 35.3515 109.259 35.1902 109.08 34.9885C108.9 34.7868 108.759 34.5632 108.656 34.3175C108.554 34.0718 108.48 33.8207 108.436 33.564C108.396 33.3073 108.376 33.0672 108.376 32.8435V29.56H109.366V32.5355C109.366 32.8142 109.391 33.0837 109.443 33.344C109.494 33.6043 109.58 33.839 109.701 34.048C109.826 34.257 109.991 34.422 110.196 34.543C110.405 34.664 110.666 34.7245 110.977 34.7245C111.223 34.7245 111.447 34.6823 111.648 34.598C111.85 34.5137 112.022 34.389 112.165 34.224C112.308 34.0553 112.418 33.8427 112.495 33.586C112.572 33.3293 112.611 33.0305 112.611 32.6895L113.254 32.8875C113.254 33.4595 113.15 33.9527 112.941 34.367C112.735 34.7813 112.444 35.1003 112.066 35.324C111.692 35.544 111.25 35.654 110.741 35.654ZM112.721 35.5V33.9105H112.611V29.56H113.595V35.5H112.721Z" fill="white"/>
<path d="M16.7399 47.42H1.2599C1.0619 47.42 0.899902 47.582 0.899902 47.78V58.22C0.899902 58.22 0.899902 58.22 0.899902 58.238C0.899902 58.256 0.899902 58.256 0.899902 58.274C0.899902 58.292 0.899902 58.292 0.899902 58.31C0.899902 58.328 0.899902 58.328 0.917902 58.346C0.917902 58.364 0.917902 58.364 0.935902 58.382C0.935902 58.4 0.953902 58.4 0.953902 58.418C0.953902 58.436 0.971902 58.436 0.971902 58.454C0.971902 58.454 0.971902 58.454 0.971902 58.472C0.971902 58.472 0.971902 58.472 0.989902 58.49L1.0079 58.508L1.0259 58.526C1.0259 58.526 1.0439 58.544 1.0619 58.544C1.0799 58.544 1.0799 58.562 1.0979 58.562C1.1159 58.562 1.1159 58.58 1.1339 58.58C1.1519 58.58 1.1519 58.58 1.1699 58.598C1.1879 58.598 1.1879 58.598 1.2059 58.598C1.2239 58.598 1.2239 58.598 1.2419 58.598H1.2599H16.7399C16.7759 58.598 16.7939 58.598 16.8119 58.598H16.8299C16.8479 58.598 16.8659 58.58 16.8839 58.58L16.9019 58.562C16.9199 58.562 16.9379 58.544 16.9379 58.526L16.9559 58.508C16.9739 58.49 16.9739 58.49 16.9919 58.472L17.0099 58.454C17.0099 58.454 17.0099 58.454 17.0099 58.436C17.0099 58.418 17.0279 58.418 17.0279 58.4C17.0279 58.4 17.0459 58.382 17.0459 58.364C17.0459 58.346 17.0459 58.346 17.0639 58.328C17.0819 58.31 17.0639 58.31 17.0819 58.292C17.0819 58.274 17.0819 58.274 17.0819 58.256C17.0819 58.238 17.0819 58.238 17.0819 58.22C17.0819 58.22 17.0819 58.22 17.0819 58.202V47.78C17.0999 47.582 16.9379 47.42 16.7399 47.42ZM1.6199 49.778L6.4799 53.63L1.6199 57.482V49.778ZM2.3039 57.86L7.0739 54.08L8.7839 55.43C8.8559 55.484 8.9279 55.502 8.9999 55.502C9.0719 55.502 9.1619 55.484 9.2159 55.43L10.9259 54.08L15.6959 57.86H2.3039ZM16.3799 57.482L11.5199 53.63L16.3799 49.778V57.482ZM16.3799 48.86L16.1639 49.04L8.9999 54.71L1.8359 49.04L1.6199 48.86V48.14H16.3799V48.86Z" fill="white"/>
<path d="M30.9995 57.5V54.5245C30.9995 54.2422 30.9738 53.9708 30.9225 53.7105C30.8748 53.4502 30.7887 53.2173 30.664 53.012C30.543 52.803 30.378 52.638 30.169 52.517C29.9637 52.396 29.7033 52.3355 29.388 52.3355C29.1423 52.3355 28.9187 52.3777 28.717 52.462C28.519 52.5427 28.3485 52.6673 28.2055 52.836C28.0625 53.0047 27.9507 53.2173 27.87 53.474C27.793 53.727 27.7545 54.0258 27.7545 54.3705L27.111 54.1725C27.111 53.5968 27.2137 53.1037 27.419 52.693C27.628 52.2787 27.9195 51.9615 28.2935 51.7415C28.6712 51.5178 29.1148 51.406 29.6245 51.406C30.0095 51.406 30.3377 51.4665 30.609 51.5875C30.8803 51.7085 31.1058 51.8698 31.2855 52.0715C31.4652 52.2695 31.6063 52.4932 31.709 52.7425C31.8117 52.9882 31.8832 53.2393 31.9235 53.496C31.9675 53.749 31.9895 53.9892 31.9895 54.2165V57.5H30.9995ZM26.7645 57.5V51.56H27.6445V53.1495H27.7545V57.5H26.7645ZM35.8957 57.665C35.3054 57.665 34.7957 57.5312 34.3667 57.2635C33.9414 56.9958 33.6132 56.6255 33.3822 56.1525C33.1512 55.6795 33.0357 55.1368 33.0357 54.5245C33.0357 53.9012 33.153 53.3548 33.3877 52.8855C33.6224 52.4162 33.9542 52.0513 34.3832 51.791C34.8122 51.527 35.3164 51.395 35.8957 51.395C36.4897 51.395 37.0012 51.5288 37.4302 51.7965C37.8592 52.0605 38.1874 52.429 38.4147 52.902C38.6457 53.3713 38.7612 53.9122 38.7612 54.5245C38.7612 55.1442 38.6457 55.6905 38.4147 56.1635C38.1837 56.6328 37.8537 57.0013 37.4247 57.269C36.9957 57.533 36.486 57.665 35.8957 57.665ZM35.8957 56.7355C36.5117 56.7355 36.97 56.5302 37.2707 56.1195C37.5714 55.7088 37.7217 55.1772 37.7217 54.5245C37.7217 53.8535 37.5695 53.32 37.2652 52.924C36.9609 52.5243 36.5044 52.3245 35.8957 52.3245C35.4814 52.3245 35.1404 52.418 34.8727 52.605C34.605 52.792 34.4052 53.0505 34.2732 53.3805C34.1412 53.7105 34.0752 54.0918 34.0752 54.5245C34.0752 55.1918 34.2292 55.7272 34.5372 56.1305C34.8452 56.5338 35.298 56.7355 35.8957 56.7355ZM43.2886 57.5C42.9366 57.5697 42.5883 57.5972 42.2436 57.5825C41.9026 57.5715 41.5983 57.5037 41.3306 57.379C41.063 57.2507 40.8595 57.0527 40.7201 56.785C40.6028 56.5503 40.5386 56.3138 40.5276 56.0755C40.5203 55.8335 40.5166 55.5603 40.5166 55.256V49.91H41.4956V55.212C41.4956 55.454 41.4975 55.6612 41.5011 55.8335C41.5085 56.0058 41.547 56.1543 41.6166 56.279C41.7486 56.5137 41.9576 56.6512 42.2436 56.6915C42.5333 56.7318 42.8816 56.7208 43.2886 56.6585V57.5ZM39.3121 52.3685V51.56H43.2886V52.3685H39.3121ZM44.6046 50.5095V49.4975H45.5836V50.5095H44.6046ZM44.6046 57.5V51.56H45.5836V57.5H44.6046ZM47.8004 57.5V51.2355C47.8004 51.0815 47.8077 50.9257 47.8224 50.768C47.837 50.6067 47.87 50.4508 47.9214 50.3005C47.9727 50.1465 48.057 50.0053 48.1744 49.877C48.31 49.7267 48.4585 49.6203 48.6199 49.558C48.7812 49.492 48.9444 49.4517 49.1094 49.437C49.278 49.4223 49.4375 49.415 49.5879 49.415H50.3414V50.229H49.6429C49.3532 50.229 49.1369 50.3005 48.9939 50.4435C48.8509 50.5828 48.7794 50.7955 48.7794 51.0815V57.5H47.8004ZM46.7939 52.3685V51.56H50.3414V52.3685H46.7939ZM51.4964 50.5095V49.4975H52.4754V50.5095H51.4964ZM51.4964 57.5V51.56H52.4754V57.5H51.4964ZM56.6329 57.665C56.0315 57.665 55.52 57.5312 55.0984 57.2635C54.6804 56.9922 54.3614 56.62 54.1414 56.147C53.9214 55.674 53.8077 55.135 53.8004 54.53C53.8077 53.9103 53.9232 53.3658 54.1469 52.8965C54.3742 52.4235 54.6987 52.055 55.1204 51.791C55.542 51.527 56.0499 51.395 56.6439 51.395C57.2709 51.395 57.8099 51.549 58.2609 51.857C58.7155 52.165 59.0199 52.5867 59.1739 53.122L58.2059 53.4135C58.0812 53.0688 57.8777 52.8012 57.5954 52.6105C57.3167 52.4198 56.9959 52.3245 56.6329 52.3245C56.2259 52.3245 55.8904 52.4198 55.6264 52.6105C55.3624 52.7975 55.1662 53.0578 55.0379 53.3915C54.9095 53.7215 54.8435 54.101 54.8399 54.53C54.8472 55.19 54.9994 55.7235 55.2964 56.1305C55.597 56.5338 56.0425 56.7355 56.6329 56.7355C57.0215 56.7355 57.3442 56.6475 57.6009 56.4715C57.8575 56.2918 58.0519 56.0333 58.1839 55.696L59.1739 55.9545C58.9685 56.5082 58.6477 56.9317 58.2114 57.225C57.775 57.5183 57.2489 57.665 56.6329 57.665ZM61.9312 57.665C61.4875 57.665 61.1153 57.5843 60.8147 57.423C60.5177 57.258 60.2922 57.0417 60.1382 56.774C59.9878 56.5063 59.9127 56.213 59.9127 55.894C59.9127 55.5823 59.9713 55.3128 60.0887 55.0855C60.2097 54.8545 60.3783 54.6638 60.5947 54.5135C60.811 54.3595 61.0695 54.2385 61.3702 54.1505C61.6525 54.0735 61.9678 54.0075 62.3162 53.9525C62.6682 53.8938 63.0238 53.8407 63.3832 53.793C63.7425 53.7453 64.078 53.6995 64.3897 53.6555L64.0377 53.859C64.0487 53.331 63.9423 52.9405 63.7187 52.6875C63.4987 52.4345 63.1173 52.308 62.5747 52.308C62.2153 52.308 61.9 52.3905 61.6287 52.5555C61.361 52.7168 61.1722 52.9808 61.0622 53.3475L60.1327 53.067C60.2757 52.5463 60.5525 52.1375 60.9632 51.8405C61.3738 51.5435 61.9147 51.395 62.5857 51.395C63.1247 51.395 63.5867 51.4922 63.9717 51.6865C64.3603 51.8772 64.639 52.1668 64.8077 52.5555C64.892 52.7388 64.9452 52.9387 64.9672 53.155C64.9892 53.3677 65.0002 53.5913 65.0002 53.826V57.5H64.1312V56.0755L64.3347 56.2075C64.111 56.6878 63.7975 57.0508 63.3942 57.2965C62.9945 57.5422 62.5068 57.665 61.9312 57.665ZM62.0797 56.8455C62.4317 56.8455 62.736 56.7832 62.9927 56.6585C63.253 56.5302 63.462 56.3633 63.6197 56.158C63.7773 55.949 63.88 55.7217 63.9277 55.476C63.9827 55.2927 64.012 55.0892 64.0157 54.8655C64.023 54.6382 64.0267 54.464 64.0267 54.343L64.3677 54.4915C64.0487 54.5355 63.7352 54.5777 63.4272 54.618C63.1192 54.6583 62.8277 54.7023 62.5527 54.75C62.2777 54.794 62.0302 54.8472 61.8102 54.9095C61.6488 54.9608 61.4967 55.0268 61.3537 55.1075C61.2143 55.1882 61.1007 55.2927 61.0127 55.421C60.9283 55.5457 60.8862 55.7015 60.8862 55.8885C60.8862 56.0498 60.9265 56.2038 61.0072 56.3505C61.0915 56.4972 61.2198 56.6163 61.3922 56.708C61.5682 56.7997 61.7973 56.8455 62.0797 56.8455ZM69.7467 57.5C69.3947 57.5697 69.0463 57.5972 68.7017 57.5825C68.3607 57.5715 68.0563 57.5037 67.7887 57.379C67.521 57.2507 67.3175 57.0527 67.1782 56.785C67.0608 56.5503 66.9967 56.3138 66.9857 56.0755C66.9783 55.8335 66.9747 55.5603 66.9747 55.256V49.91H67.9537V55.212C67.9537 55.454 67.9555 55.6612 67.9592 55.8335C67.9665 56.0058 68.005 56.1543 68.0747 56.279C68.2067 56.5137 68.4157 56.6512 68.7017 56.6915C68.9913 56.7318 69.3397 56.7208 69.7467 56.6585V57.5ZM65.7702 52.3685V51.56H69.7467V52.3685H65.7702ZM71.0626 50.5095V49.4975H72.0416V50.5095H71.0626ZM71.0626 57.5V51.56H72.0416V57.5H71.0626ZM76.2219 57.665C75.6315 57.665 75.1219 57.5312 74.6929 57.2635C74.2675 56.9958 73.9394 56.6255 73.7084 56.1525C73.4774 55.6795 73.3619 55.1368 73.3619 54.5245C73.3619 53.9012 73.4792 53.3548 73.7139 52.8855C73.9485 52.4162 74.2804 52.0513 74.7094 51.791C75.1384 51.527 75.6425 51.395 76.2219 51.395C76.8159 51.395 77.3274 51.5288 77.7564 51.7965C78.1854 52.0605 78.5135 52.429 78.7409 52.902C78.9719 53.3713 79.0874 53.9122 79.0874 54.5245C79.0874 55.1442 78.9719 55.6905 78.7409 56.1635C78.5099 56.6328 78.1799 57.0013 77.7509 57.269C77.3219 57.533 76.8122 57.665 76.2219 57.665ZM76.2219 56.7355C76.8379 56.7355 77.2962 56.5302 77.5969 56.1195C77.8975 55.7088 78.0479 55.1772 78.0479 54.5245C78.0479 53.8535 77.8957 53.32 77.5914 52.924C77.287 52.5243 76.8305 52.3245 76.2219 52.3245C75.8075 52.3245 75.4665 52.418 75.1989 52.605C74.9312 52.792 74.7314 53.0505 74.5994 53.3805C74.4674 53.7105 74.4014 54.0918 74.4014 54.5245C74.4014 55.1918 74.5554 55.7272 74.8634 56.1305C75.1714 56.5338 75.6242 56.7355 76.2219 56.7355ZM84.5278 57.5V54.5245C84.5278 54.2422 84.5022 53.9708 84.4508 53.7105C84.4032 53.4502 84.317 53.2173 84.1923 53.012C84.0713 52.803 83.9063 52.638 83.6973 52.517C83.492 52.396 83.2317 52.3355 82.9163 52.3355C82.6707 52.3355 82.447 52.3777 82.2453 52.462C82.0473 52.5427 81.8768 52.6673 81.7338 52.836C81.5908 53.0047 81.479 53.2173 81.3983 53.474C81.3213 53.727 81.2828 54.0258 81.2828 54.3705L80.6393 54.1725C80.6393 53.5968 80.742 53.1037 80.9473 52.693C81.1563 52.2787 81.4478 51.9615 81.8218 51.7415C82.1995 51.5178 82.6432 51.406 83.1528 51.406C83.5378 51.406 83.866 51.4665 84.1373 51.5875C84.4087 51.7085 84.6342 51.8698 84.8138 52.0715C84.9935 52.2695 85.1347 52.4932 85.2373 52.7425C85.34 52.9882 85.4115 53.2393 85.4518 53.496C85.4958 53.749 85.5178 53.9892 85.5178 54.2165V57.5H84.5278ZM80.2928 57.5V51.56H81.1728V53.1495H81.2828V57.5H80.2928ZM89.1917 57.6595C88.4841 57.6595 87.9029 57.5055 87.4482 57.1975C86.9972 56.8858 86.7204 56.4513 86.6177 55.894L87.6187 55.7345C87.6994 56.0572 87.8846 56.3138 88.1742 56.5045C88.4639 56.6915 88.8232 56.785 89.2522 56.785C89.6592 56.785 89.9782 56.7007 90.2092 56.532C90.4402 56.3633 90.5557 56.1342 90.5557 55.8445C90.5557 55.6758 90.5172 55.5402 90.4402 55.4375C90.3632 55.3312 90.2037 55.2322 89.9617 55.1405C89.7234 55.0488 89.3622 54.9388 88.8782 54.8105C88.3539 54.6712 87.9414 54.5263 87.6407 54.376C87.3401 54.2257 87.1256 54.0515 86.9972 53.8535C86.8689 53.6555 86.8047 53.4153 86.8047 53.133C86.8047 52.7847 86.9001 52.4803 87.0907 52.22C87.2814 51.956 87.5472 51.7525 87.8882 51.6095C88.2329 51.4665 88.6326 51.395 89.0872 51.395C89.5382 51.395 89.9416 51.4665 90.2972 51.6095C90.6529 51.7525 90.9389 51.956 91.1552 52.22C91.3752 52.4803 91.5054 52.7847 91.5457 53.133L90.5447 53.3145C90.4971 52.9955 90.3431 52.7443 90.0827 52.561C89.8261 52.3777 89.4942 52.2805 89.0872 52.2695C88.7022 52.2548 88.3887 52.3227 88.1467 52.473C87.9084 52.6233 87.7892 52.8268 87.7892 53.0835C87.7892 53.2265 87.8332 53.3493 87.9212 53.452C88.0129 53.5547 88.1797 53.6518 88.4217 53.7435C88.6674 53.8352 89.0231 53.9397 89.4887 54.057C90.0131 54.189 90.4256 54.3338 90.7262 54.4915C91.0306 54.6455 91.2469 54.8288 91.3752 55.0415C91.5036 55.2505 91.5677 55.509 91.5677 55.817C91.5677 56.389 91.3569 56.84 90.9352 57.17C90.5136 57.4963 89.9324 57.6595 89.1917 57.6595ZM97.0047 58.655C96.4144 58.655 95.8681 58.5542 95.3657 58.3525C94.8671 58.1508 94.4326 57.8685 94.0622 57.5055C93.6919 57.1425 93.4041 56.7153 93.1987 56.224C92.9934 55.7327 92.8907 55.1992 92.8907 54.6235C92.8907 53.9708 92.9934 53.386 93.1987 52.869C93.4077 52.3483 93.6974 51.9047 94.0677 51.538C94.4417 51.1713 94.8781 50.8908 95.3767 50.6965C95.8791 50.5022 96.4236 50.405 97.0102 50.405C97.7069 50.405 98.3156 50.515 98.8362 50.735C99.3569 50.9513 99.7877 51.2483 100.129 51.626C100.473 52 100.726 52.4235 100.888 52.8965C101.053 53.3695 101.124 53.8627 101.102 54.376C101.077 55.0763 100.921 55.6098 100.635 55.9765C100.349 56.3432 99.9289 56.5265 99.3752 56.5265C99.0526 56.5265 98.7629 56.4513 98.5062 56.301C98.2496 56.1507 98.0754 55.9343 97.9837 55.652L98.2752 55.674C98.1359 55.9453 97.9379 56.1397 97.6812 56.257C97.4246 56.3707 97.1587 56.4275 96.8837 56.4275C96.5317 56.4275 96.2219 56.3523 95.9542 56.202C95.6902 56.048 95.4812 55.8353 95.3272 55.564C95.1769 55.289 95.1017 54.9718 95.1017 54.6125C95.1017 54.2385 95.1806 53.9158 95.3382 53.6445C95.4959 53.3732 95.7104 53.1642 95.9817 53.0175C96.2531 52.8672 96.5592 52.792 96.9002 52.792C97.1386 52.792 97.3861 52.8415 97.6427 52.9405C97.8994 53.0395 98.0974 53.1898 98.2367 53.3915L98.0167 53.6555V52.946H98.6767L98.6657 54.827C98.6657 55.102 98.7244 55.3183 98.8417 55.476C98.9627 55.6337 99.1497 55.7125 99.4027 55.7125C99.5971 55.7125 99.7529 55.6575 99.8702 55.5475C99.9912 55.4375 100.081 55.2872 100.14 55.0965C100.198 54.9022 100.231 54.6767 100.239 54.42C100.257 53.8553 100.18 53.3713 100.008 52.968C99.8354 52.5647 99.5952 52.2328 99.2872 51.9725C98.9829 51.7122 98.6382 51.5215 98.2532 51.4005C97.8719 51.2758 97.4759 51.2135 97.0652 51.2135C96.5336 51.2135 96.0606 51.2997 95.6462 51.472C95.2356 51.6443 94.8872 51.8863 94.6012 52.198C94.3189 52.506 94.1044 52.8653 93.9577 53.276C93.8147 53.6867 93.7469 54.1303 93.7542 54.607C93.7652 55.0873 93.8532 55.5273 94.0182 55.927C94.1832 56.323 94.4124 56.664 94.7057 56.95C95.0027 57.236 95.3492 57.456 95.7452 57.61C96.1449 57.7677 96.5794 57.8465 97.0487 57.8465C97.3347 57.8465 97.6189 57.8117 97.9012 57.742C98.1872 57.6723 98.4439 57.577 98.6712 57.456L98.9572 58.193C98.6566 58.347 98.3412 58.4625 98.0112 58.5395C97.6812 58.6165 97.3457 58.655 97.0047 58.655ZM96.9387 55.608C97.2137 55.608 97.4392 55.5292 97.6152 55.3715C97.7949 55.2138 97.8847 54.959 97.8847 54.607C97.8847 54.2733 97.8022 54.0222 97.6372 53.8535C97.4722 53.6848 97.2467 53.6005 96.9607 53.6005C96.6307 53.6005 96.3796 53.6903 96.2072 53.87C96.0386 54.046 95.9542 54.2917 95.9542 54.607C95.9542 54.926 96.0422 55.1735 96.2182 55.3495C96.3942 55.5218 96.6344 55.608 96.9387 55.608ZM104.366 57.5L102.21 51.56H103.2L104.867 56.2515L106.528 51.56H107.523L105.367 57.5H104.366ZM109.874 57.665C109.43 57.665 109.058 57.5843 108.757 57.423C108.46 57.258 108.235 57.0417 108.081 56.774C107.93 56.5063 107.855 56.213 107.855 55.894C107.855 55.5823 107.914 55.3128 108.031 55.0855C108.152 54.8545 108.321 54.6638 108.537 54.5135C108.753 54.3595 109.012 54.2385 109.313 54.1505C109.595 54.0735 109.91 54.0075 110.259 53.9525C110.611 53.8938 110.966 53.8407 111.326 53.793C111.685 53.7453 112.02 53.6995 112.332 53.6555L111.98 53.859C111.991 53.331 111.885 52.9405 111.661 52.6875C111.441 52.4345 111.06 52.308 110.517 52.308C110.158 52.308 109.842 52.3905 109.571 52.5555C109.303 52.7168 109.115 52.9808 109.005 53.3475L108.075 53.067C108.218 52.5463 108.495 52.1375 108.906 51.8405C109.316 51.5435 109.857 51.395 110.528 51.395C111.067 51.395 111.529 51.4922 111.914 51.6865C112.303 51.8772 112.581 52.1668 112.75 52.5555C112.834 52.7388 112.888 52.9387 112.91 53.155C112.932 53.3677 112.943 53.5913 112.943 53.826V57.5H112.074V56.0755L112.277 56.2075C112.053 56.6878 111.74 57.0508 111.337 57.2965C110.937 57.5422 110.449 57.665 109.874 57.665ZM110.022 56.8455C110.374 56.8455 110.678 56.7832 110.935 56.6585C111.195 56.5302 111.404 56.3633 111.562 56.158C111.72 55.949 111.822 55.7217 111.87 55.476C111.925 55.2927 111.954 55.0892 111.958 54.8655C111.965 54.6382 111.969 54.464 111.969 54.343L112.31 54.4915C111.991 54.5355 111.678 54.5777 111.37 54.618C111.062 54.6583 110.77 54.7023 110.495 54.75C110.22 54.794 109.973 54.8472 109.753 54.9095C109.591 54.9608 109.439 55.0268 109.296 55.1075C109.157 55.1882 109.043 55.2927 108.955 55.421C108.871 55.5457 108.829 55.7015 108.829 55.8885C108.829 56.0498 108.869 56.2038 108.95 56.3505C109.034 56.4972 109.162 56.6163 109.335 56.708C109.511 56.7997 109.74 56.8455 110.022 56.8455ZM114.483 57.5V49.415H115.462V57.5H114.483ZM117.106 57.5L117.112 49.58H118.102V54.42L120.593 51.56H121.864L119.24 54.53L122.172 57.5H120.802L118.102 54.64V57.5H117.106ZM126.036 57.5C125.684 57.5697 125.335 57.5972 124.991 57.5825C124.65 57.5715 124.345 57.5037 124.078 57.379C123.81 57.2507 123.607 57.0527 123.467 56.785C123.35 56.5503 123.286 56.3138 123.275 56.0755C123.267 55.8335 123.264 55.5603 123.264 55.256V49.91H124.243V55.212C124.243 55.454 124.245 55.6612 124.248 55.8335C124.256 56.0058 124.294 56.1543 124.364 56.279C124.496 56.5137 124.705 56.6512 124.991 56.6915C125.28 56.7318 125.629 56.7208 126.036 56.6585V57.5ZM122.059 52.3685V51.56H126.036V52.3685H122.059ZM127.242 57.5V51.56H128.116V52.9955L127.973 52.8085C128.043 52.6252 128.133 52.4565 128.243 52.3025C128.356 52.1485 128.483 52.022 128.622 51.923C128.776 51.7983 128.95 51.703 129.145 51.637C129.339 51.571 129.537 51.5325 129.739 51.5215C129.94 51.5068 130.129 51.5197 130.305 51.56V52.4785C130.1 52.4235 129.874 52.4088 129.629 52.4345C129.383 52.4602 129.156 52.55 128.947 52.704C128.756 52.8397 128.608 53.0047 128.501 53.199C128.399 53.3933 128.327 53.6042 128.287 53.8315C128.246 54.0552 128.226 54.2843 128.226 54.519V57.5H127.242ZM132.84 57.665C132.397 57.665 132.025 57.5843 131.724 57.423C131.427 57.258 131.201 57.0417 131.047 56.774C130.897 56.5063 130.822 56.213 130.822 55.894C130.822 55.5823 130.881 55.3128 130.998 55.0855C131.119 54.8545 131.288 54.6638 131.504 54.5135C131.72 54.3595 131.979 54.2385 132.279 54.1505C132.562 54.0735 132.877 54.0075 133.225 53.9525C133.577 53.8938 133.933 53.8407 134.292 53.793C134.652 53.7453 134.987 53.6995 135.299 53.6555L134.947 53.859C134.958 53.331 134.852 52.9405 134.628 52.6875C134.408 52.4345 134.027 52.308 133.484 52.308C133.125 52.308 132.809 52.3905 132.538 52.5555C132.27 52.7168 132.081 52.9808 131.971 53.3475L131.042 53.067C131.185 52.5463 131.462 52.1375 131.872 51.8405C132.283 51.5435 132.824 51.395 133.495 51.395C134.034 51.395 134.496 51.4922 134.881 51.6865C135.27 51.8772 135.548 52.1668 135.717 52.5555C135.801 52.7388 135.854 52.9387 135.876 53.155C135.898 53.3677 135.909 53.5913 135.909 53.826V57.5H135.04V56.0755L135.244 56.2075C135.02 56.6878 134.707 57.0508 134.303 57.2965C133.904 57.5422 133.416 57.665 132.84 57.665ZM132.989 56.8455C133.341 56.8455 133.645 56.7832 133.902 56.6585C134.162 56.5302 134.371 56.3633 134.529 56.158C134.687 55.949 134.789 55.7217 134.837 55.476C134.892 55.2927 134.921 55.0892 134.925 54.8655C134.932 54.6382 134.936 54.464 134.936 54.343L135.277 54.4915C134.958 54.5355 134.644 54.5777 134.336 54.618C134.028 54.6583 133.737 54.7023 133.462 54.75C133.187 54.794 132.939 54.8472 132.719 54.9095C132.558 54.9608 132.406 55.0268 132.263 55.1075C132.124 55.1882 132.01 55.2927 131.922 55.421C131.838 55.5457 131.795 55.7015 131.795 55.8885C131.795 56.0498 131.836 56.2038 131.916 56.3505C132.001 56.4972 132.129 56.6163 132.301 56.708C132.477 56.7997 132.707 56.8455 132.989 56.8455ZM139.671 57.665C139.118 57.665 138.643 57.5275 138.247 57.2525C137.851 56.9738 137.545 56.598 137.328 56.125C137.116 55.652 137.009 55.1185 137.009 54.5245C137.009 53.9305 137.116 53.397 137.328 52.924C137.545 52.451 137.851 52.0788 138.247 51.8075C138.643 51.5325 139.116 51.395 139.666 51.395C140.227 51.395 140.698 51.5307 141.079 51.802C141.461 52.0733 141.749 52.4455 141.943 52.9185C142.141 53.3915 142.24 53.9268 142.24 54.5245C142.24 55.1148 142.141 55.6483 141.943 56.125C141.749 56.598 141.461 56.9738 141.079 57.2525C140.698 57.5275 140.229 57.665 139.671 57.665ZM139.792 56.7685C140.192 56.7685 140.52 56.6732 140.777 56.4825C141.034 56.2882 141.222 56.0223 141.343 55.685C141.468 55.344 141.53 54.9572 141.53 54.5245C141.53 54.0845 141.468 53.6977 141.343 53.364C141.222 53.0267 141.035 52.7645 140.782 52.5775C140.529 52.3868 140.209 52.2915 139.82 52.2915C139.417 52.2915 139.083 52.3905 138.819 52.5885C138.559 52.7865 138.364 53.0542 138.236 53.3915C138.111 53.7288 138.049 54.1065 138.049 54.5245C138.049 54.9462 138.113 55.3275 138.241 55.6685C138.37 56.0058 138.562 56.2735 138.819 56.4715C139.079 56.6695 139.404 56.7685 139.792 56.7685ZM141.53 57.5V53.1275H141.42V49.58H142.405V57.5H141.53ZM146.52 57.665C145.937 57.665 145.427 57.5367 144.991 57.28C144.558 57.0197 144.221 56.6585 143.979 56.1965C143.737 55.7308 143.616 55.1882 143.616 54.5685C143.616 53.9195 143.735 53.3585 143.973 52.8855C144.212 52.4088 144.543 52.0422 144.969 51.7855C145.398 51.5252 145.9 51.395 146.476 51.395C147.073 51.395 147.581 51.5325 147.999 51.8075C148.421 52.0825 148.736 52.4748 148.945 52.9845C149.158 53.4942 149.25 54.101 149.22 54.805H148.23V54.453C148.219 53.7233 148.071 53.1788 147.785 52.8195C147.499 52.4565 147.073 52.275 146.509 52.275C145.904 52.275 145.444 52.4693 145.128 52.858C144.813 53.2467 144.655 53.804 144.655 54.53C144.655 55.2303 144.813 55.773 145.128 56.158C145.444 56.543 145.893 56.7355 146.476 56.7355C146.868 56.7355 147.209 56.6457 147.499 56.466C147.788 56.2863 148.016 56.0278 148.181 55.6905L149.121 56.015C148.89 56.5393 148.542 56.9463 148.076 57.236C147.614 57.522 147.095 57.665 146.52 57.665ZM144.325 54.805V54.0185H148.714V54.805H144.325ZM150.406 57.5V56.422H151.484V57.5H150.406ZM155.697 57.665C155.096 57.665 154.584 57.5312 154.163 57.2635C153.745 56.9922 153.426 56.62 153.206 56.147C152.986 55.674 152.872 55.135 152.865 54.53C152.872 53.9103 152.988 53.3658 153.211 52.8965C153.439 52.4235 153.763 52.055 154.185 51.791C154.606 51.527 155.114 51.395 155.708 51.395C156.335 51.395 156.874 51.549 157.325 51.857C157.78 52.165 158.084 52.5867 158.238 53.122L157.27 53.4135C157.146 53.0688 156.942 52.8012 156.66 52.6105C156.381 52.4198 156.06 52.3245 155.697 52.3245C155.29 52.3245 154.955 52.4198 154.691 52.6105C154.427 52.7975 154.231 53.0578 154.102 53.3915C153.974 53.7215 153.908 54.101 153.904 54.53C153.912 55.19 154.064 55.7235 154.361 56.1305C154.661 56.5338 155.107 56.7355 155.697 56.7355C156.086 56.7355 156.409 56.6475 156.665 56.4715C156.922 56.2918 157.116 56.0333 157.248 55.696L158.238 55.9545C158.033 56.5082 157.712 56.9317 157.276 57.225C156.839 57.5183 156.313 57.665 155.697 57.665ZM161.73 57.665C161.139 57.665 160.63 57.5312 160.201 57.2635C159.775 56.9958 159.447 56.6255 159.216 56.1525C158.985 55.6795 158.87 55.1368 158.87 54.5245C158.87 53.9012 158.987 53.3548 159.222 52.8855C159.456 52.4162 159.788 52.0513 160.217 51.791C160.646 51.527 161.15 51.395 161.73 51.395C162.324 51.395 162.835 51.5288 163.264 51.7965C163.693 52.0605 164.021 52.429 164.249 52.902C164.48 53.3713 164.595 53.9122 164.595 54.5245C164.595 55.1442 164.48 55.6905 164.249 56.1635C164.018 56.6328 163.688 57.0013 163.259 57.269C162.83 57.533 162.32 57.665 161.73 57.665ZM161.73 56.7355C162.346 56.7355 162.804 56.5302 163.105 56.1195C163.405 55.7088 163.556 55.1772 163.556 54.5245C163.556 53.8535 163.404 53.32 163.099 52.924C162.795 52.5243 162.338 52.3245 161.73 52.3245C161.315 52.3245 160.974 52.418 160.707 52.605C160.439 52.792 160.239 53.0505 160.107 53.3805C159.975 53.7105 159.909 54.0918 159.909 54.5245C159.909 55.1918 160.063 55.7272 160.371 56.1305C160.679 56.5338 161.132 56.7355 161.73 56.7355ZM172.907 57.5L172.912 53.6995C172.912 53.2558 172.793 52.9093 172.555 52.66C172.32 52.407 172.014 52.2805 171.636 52.2805C171.416 52.2805 171.207 52.3318 171.009 52.4345C170.811 52.5335 170.65 52.6912 170.525 52.9075C170.4 53.1202 170.338 53.3933 170.338 53.727L169.821 53.518C169.814 53.0963 169.9 52.7278 170.08 52.4125C170.263 52.0935 170.512 51.846 170.828 51.67C171.143 51.494 171.499 51.406 171.895 51.406C172.514 51.406 173.002 51.5948 173.358 51.9725C173.713 52.3465 173.891 52.8507 173.891 53.485L173.886 57.5H172.907ZM165.801 57.5V51.56H166.675V53.1495H166.785V57.5H165.801ZM169.359 57.5L169.365 53.738C169.365 53.2833 169.247 52.9277 169.013 52.671C168.778 52.4107 168.466 52.2805 168.078 52.2805C167.693 52.2805 167.381 52.4125 167.143 52.6765C166.904 52.9405 166.785 53.2907 166.785 53.727L166.268 53.419C166.268 53.034 166.36 52.6893 166.543 52.385C166.726 52.0807 166.976 51.8423 167.291 51.67C167.606 51.494 167.964 51.406 168.364 51.406C168.763 51.406 169.112 51.4903 169.409 51.659C169.706 51.8277 169.935 52.0697 170.096 52.385C170.257 52.6967 170.338 53.0688 170.338 53.5015L170.333 57.5H169.359ZM175.5 57.5V56.422H176.578V57.5H175.5ZM179.977 57.665C179.533 57.665 179.161 57.5843 178.861 57.423C178.564 57.258 178.338 57.0417 178.184 56.774C178.034 56.5063 177.959 56.213 177.959 55.894C177.959 55.5823 178.017 55.3128 178.135 55.0855C178.256 54.8545 178.424 54.6638 178.641 54.5135C178.857 54.3595 179.115 54.2385 179.416 54.1505C179.698 54.0735 180.014 54.0075 180.362 53.9525C180.714 53.8938 181.07 53.8407 181.429 53.793C181.788 53.7453 182.124 53.6995 182.436 53.6555L182.084 53.859C182.095 53.331 181.988 52.9405 181.765 52.6875C181.545 52.4345 181.163 52.308 180.621 52.308C180.261 52.308 179.946 52.3905 179.675 52.5555C179.407 52.7168 179.218 52.9808 179.108 53.3475L178.179 53.067C178.322 52.5463 178.598 52.1375 179.009 51.8405C179.42 51.5435 179.961 51.395 180.632 51.395C181.171 51.395 181.633 51.4922 182.018 51.6865C182.406 51.8772 182.685 52.1668 182.854 52.5555C182.938 52.7388 182.991 52.9387 183.013 53.155C183.035 53.3677 183.046 53.5913 183.046 53.826V57.5H182.177V56.0755L182.381 56.2075C182.157 56.6878 181.843 57.0508 181.44 57.2965C181.04 57.5422 180.553 57.665 179.977 57.665ZM180.126 56.8455C180.478 56.8455 180.782 56.7832 181.039 56.6585C181.299 56.5302 181.508 56.3633 181.666 56.158C181.823 55.949 181.926 55.7217 181.974 55.476C182.029 55.2927 182.058 55.0892 182.062 54.8655C182.069 54.6382 182.073 54.464 182.073 54.343L182.414 54.4915C182.095 54.5355 181.781 54.5777 181.473 54.618C181.165 54.6583 180.874 54.7023 180.599 54.75C180.324 54.794 180.076 54.8472 179.856 54.9095C179.695 54.9608 179.543 55.0268 179.4 55.1075C179.26 55.1882 179.147 55.2927 179.059 55.421C178.974 55.5457 178.932 55.7015 178.932 55.8885C178.932 56.0498 178.972 56.2038 179.053 56.3505C179.137 56.4972 179.266 56.6163 179.438 56.708C179.614 56.7997 179.843 56.8455 180.126 56.8455ZM186.731 57.654C186.35 57.654 186.022 57.5935 185.747 57.4725C185.475 57.3515 185.25 57.1902 185.07 56.9885C184.89 56.7868 184.749 56.5632 184.647 56.3175C184.544 56.0718 184.471 55.8207 184.427 55.564C184.386 55.3073 184.366 55.0672 184.366 54.8435V51.56H185.356V54.5355C185.356 54.8142 185.382 55.0837 185.433 55.344C185.484 55.6043 185.571 55.839 185.692 56.048C185.816 56.257 185.981 56.422 186.187 56.543C186.396 56.664 186.656 56.7245 186.968 56.7245C187.213 56.7245 187.437 56.6823 187.639 56.598C187.84 56.5137 188.013 56.389 188.156 56.224C188.299 56.0553 188.409 55.8427 188.486 55.586C188.563 55.3293 188.601 55.0305 188.601 54.6895L189.245 54.8875C189.245 55.4595 189.14 55.9527 188.931 56.367C188.726 56.7813 188.434 57.1003 188.057 57.324C187.683 57.544 187.241 57.654 186.731 57.654ZM188.711 57.5V55.9105H188.601V51.56H189.586V57.5H188.711Z" fill="white"/>
<defs>
<clipPath id="clip0_68_225">
<rect width="18" height="18" fill="white"/>
</clipPath>
</defs>
</svg>
