<svg width="115" height="18" viewBox="0 0 115 18" fill="none" xmlns="http://www.w3.org/2000/svg">
<mask id="path-1-inside-1_68_235" fill="white">
<path d="M18 9C18 13.9706 13.9706 18 9 18C4.02944 18 0 13.9706 0 9C0 6.87162 0.738808 4.9158 1.97396 3.375C3.62334 1.31746 6.15782 0 9 0C13.9706 0 18 4.02944 18 9Z"/>
</mask>
<path d="M9 18L8.8882 18.2236L9.00787 18.2834L9.12403 18.2171L9 18ZM9 0L9.12403 -0.217061L9.00787 -0.283442L8.8882 -0.223607L9 0ZM1.72596 3.34343C1.68988 3.62682 1.82489 3.96294 2.07475 4.28431C2.33168 4.61476 2.73467 4.96333 3.30447 5.28088C4.44487 5.91642 6.27016 6.4375 9 6.4375V5.9375C6.32984 5.9375 4.59436 5.42733 3.54787 4.84412C3.02423 4.5523 2.67724 4.24462 2.46948 3.97741C2.25467 3.70112 2.21029 3.49818 2.22196 3.40657L1.72596 3.34343ZM9 6.4375C11.7292 6.4375 13.4656 5.91664 14.5289 5.2767C15.5808 4.6436 16 3.87259 16 3.375H15.5C15.5 3.62741 15.2442 4.26265 14.2711 4.8483C13.3094 5.42711 11.6708 5.9375 9 5.9375V6.4375ZM8.75 0V12.9375H9.25V0H8.75ZM8.75 12.9375V18H9.25V12.9375H8.75ZM2.4 14.825C3.10034 14.2997 5.44553 13.1875 9 13.1875V12.6875C5.35447 12.6875 2.89966 13.8253 2.1 14.425L2.4 14.825ZM9 13.1875C9.5446 13.1875 10.6531 13.27 11.9041 13.5201C13.1567 13.7707 14.5314 14.1854 15.6214 14.8394L15.8786 14.4106C14.7186 13.7146 13.2808 13.2856 12.0022 13.0299C10.7219 12.7738 9.5804 12.6875 9 12.6875V13.1875ZM0 9.25H4.5V8.75H0V9.25ZM8.8882 -0.223607C7.30728 0.566851 4.25 3.50115 4.25 9H4.75C4.75 3.69885 7.69272 0.933149 9.1118 0.223607L8.8882 -0.223607ZM4.5 9.25H13.5V8.75H4.5V9.25ZM13.5 9.25H18V8.75H13.5V9.25ZM8.87597 0.217061C10.1109 0.922712 12.8071 3.6955 13.2509 9.02076L13.7491 8.97924C13.2929 3.5045 10.5141 0.577288 9.12403 -0.217061L8.87597 0.217061ZM9.1118 17.7764C7.69272 17.0669 4.75 14.3012 4.75 9H4.25C4.25 14.4988 7.30728 17.4331 8.8882 18.2236L9.1118 17.7764ZM9.12403 18.2171C10.5141 17.4227 13.2929 14.4955 13.7491 9.02076L13.2509 8.97924C12.8071 14.3045 10.1109 17.0773 8.87597 17.7829L9.12403 18.2171ZM1.97396 3.375L2.36408 3.68774L1.97396 3.375ZM17.5 9C17.5 13.6944 13.6944 17.5 9 17.5V18.5C14.2467 18.5 18.5 14.2467 18.5 9H17.5ZM9 17.5C4.30558 17.5 0.5 13.6944 0.5 9H-0.5C-0.5 14.2467 3.75329 18.5 9 18.5V17.5ZM9 0.5C13.6944 0.5 17.5 4.30558 17.5 9H18.5C18.5 3.75329 14.2467 -0.5 9 -0.5V0.5ZM0.5 9C0.5 6.98938 1.19748 5.14303 2.36408 3.68774L1.58383 3.06226C0.28014 4.68857 -0.5 6.75386 -0.5 9H0.5ZM2.36408 3.68774C3.92265 1.74348 6.31594 0.5 9 0.5V-0.5C5.99969 -0.5 3.32403 0.891437 1.58383 3.06226L2.36408 3.68774Z" fill="white" mask="url(#path-1-inside-1_68_235)"/>
<path d="M28.376 13.5L26.22 7.56H27.21L28.8765 12.2515L30.5375 7.56H31.533L29.377 13.5H28.376ZM33.8833 13.665C33.4396 13.665 33.0675 13.5843 32.7668 13.423C32.4698 13.258 32.2443 13.0417 32.0903 12.774C31.94 12.5063 31.8648 12.213 31.8648 11.894C31.8648 11.5823 31.9235 11.3128 32.0408 11.0855C32.1618 10.8545 32.3305 10.6638 32.5468 10.5135C32.7631 10.3595 33.0216 10.2385 33.3223 10.1505C33.6046 10.0735 33.92 10.0075 34.2683 9.9525C34.6203 9.89383 34.976 9.84067 35.3353 9.793C35.6946 9.74533 36.0301 9.6995 36.3418 9.6555L35.9898 9.859C36.0008 9.331 35.8945 8.9405 35.6708 8.6875C35.4508 8.4345 35.0695 8.308 34.5268 8.308C34.1675 8.308 33.8521 8.3905 33.5808 8.5555C33.3131 8.71683 33.1243 8.98083 33.0143 9.3475L32.0848 9.067C32.2278 8.54633 32.5046 8.1375 32.9153 7.8405C33.326 7.5435 33.8668 7.395 34.5378 7.395C35.0768 7.395 35.5388 7.49217 35.9238 7.6865C36.3125 7.87717 36.5911 8.16683 36.7598 8.5555C36.8441 8.73883 36.8973 8.93867 36.9193 9.155C36.9413 9.36767 36.9523 9.59133 36.9523 9.826V13.5H36.0833V12.0755L36.2868 12.2075C36.0631 12.6878 35.7496 13.0508 35.3463 13.2965C34.9466 13.5422 34.459 13.665 33.8833 13.665ZM34.0318 12.8455C34.3838 12.8455 34.6881 12.7832 34.9448 12.6585C35.2051 12.5302 35.4141 12.3633 35.5718 12.158C35.7295 11.949 35.8321 11.7217 35.8798 11.476C35.9348 11.2927 35.9641 11.0892 35.9678 10.8655C35.9751 10.6382 35.9788 10.464 35.9788 10.343L36.3198 10.4915C36.0008 10.5355 35.6873 10.5777 35.3793 10.618C35.0713 10.6583 34.7798 10.7023 34.5048 10.75C34.2298 10.794 33.9823 10.8472 33.7623 10.9095C33.601 10.9608 33.4488 11.0268 33.3058 11.1075C33.1665 11.1882 33.0528 11.2927 32.9648 11.421C32.8805 11.5457 32.8383 11.7015 32.8383 11.8885C32.8383 12.0498 32.8786 12.2038 32.9593 12.3505C33.0436 12.4972 33.172 12.6163 33.3443 12.708C33.5203 12.7997 33.7495 12.8455 34.0318 12.8455ZM38.4923 13.5V5.415H39.4713V13.5H38.4923ZM41.1161 13.5L41.1216 5.58H42.1116V10.42L44.6031 7.56H45.8736L43.2501 10.53L46.1816 13.5H44.8121L42.1116 10.64V13.5H41.1161ZM50.0455 13.5C49.6935 13.5697 49.3452 13.5972 49.0005 13.5825C48.6595 13.5715 48.3552 13.5037 48.0875 13.379C47.8198 13.2507 47.6163 13.0527 47.477 12.785C47.3597 12.5503 47.2955 12.3138 47.2845 12.0755C47.2772 11.8335 47.2735 11.5603 47.2735 11.256V5.91H48.2525V11.212C48.2525 11.454 48.2543 11.6612 48.258 11.8335C48.2653 12.0058 48.3038 12.1543 48.3735 12.279C48.5055 12.5137 48.7145 12.6512 49.0005 12.6915C49.2902 12.7318 49.6385 12.7208 50.0455 12.6585V13.5ZM46.069 8.3685V7.56H50.0455V8.3685H46.069ZM51.2514 13.5V7.56H52.1259V8.9955L51.9829 8.8085C52.0526 8.62517 52.1424 8.4565 52.2524 8.3025C52.3661 8.1485 52.4926 8.022 52.6319 7.923C52.7859 7.79833 52.9601 7.703 53.1544 7.637C53.3488 7.571 53.5468 7.5325 53.7484 7.5215C53.9501 7.50683 54.1389 7.51967 54.3149 7.56V8.4785C54.1096 8.4235 53.8841 8.40883 53.6384 8.4345C53.3928 8.46017 53.1654 8.55 52.9564 8.704C52.7658 8.83967 52.6173 9.00467 52.5109 9.199C52.4083 9.39333 52.3368 9.60417 52.2964 9.8315C52.2561 10.0552 52.2359 10.2843 52.2359 10.519V13.5H51.2514ZM56.8501 13.665C56.4064 13.665 56.0343 13.5843 55.7336 13.423C55.4366 13.258 55.2111 13.0417 55.0571 12.774C54.9068 12.5063 54.8316 12.213 54.8316 11.894C54.8316 11.5823 54.8903 11.3128 55.0076 11.0855C55.1286 10.8545 55.2973 10.6638 55.5136 10.5135C55.7299 10.3595 55.9884 10.2385 56.2891 10.1505C56.5714 10.0735 56.8868 10.0075 57.2351 9.9525C57.5871 9.89383 57.9428 9.84067 58.3021 9.793C58.6614 9.74533 58.9969 9.6995 59.3086 9.6555L58.9566 9.859C58.9676 9.331 58.8613 8.9405 58.6376 8.6875C58.4176 8.4345 58.0363 8.308 57.4936 8.308C57.1343 8.308 56.8189 8.3905 56.5476 8.5555C56.2799 8.71683 56.0911 8.98083 55.9811 9.3475L55.0516 9.067C55.1946 8.54633 55.4714 8.1375 55.8821 7.8405C56.2928 7.5435 56.8336 7.395 57.5046 7.395C58.0436 7.395 58.5056 7.49217 58.8906 7.6865C59.2793 7.87717 59.5579 8.16683 59.7266 8.5555C59.8109 8.73883 59.8641 8.93867 59.8861 9.155C59.9081 9.36767 59.9191 9.59133 59.9191 9.826V13.5H59.0501V12.0755L59.2536 12.2075C59.0299 12.6878 58.7164 13.0508 58.3131 13.2965C57.9134 13.5422 57.4258 13.665 56.8501 13.665ZM56.9986 12.8455C57.3506 12.8455 57.6549 12.7832 57.9116 12.6585C58.1719 12.5302 58.3809 12.3633 58.5386 12.158C58.6963 11.949 58.7989 11.7217 58.8466 11.476C58.9016 11.2927 58.9309 11.0892 58.9346 10.8655C58.9419 10.6382 58.9456 10.464 58.9456 10.343L59.2866 10.4915C58.9676 10.5355 58.6541 10.5777 58.3461 10.618C58.0381 10.6583 57.7466 10.7023 57.4716 10.75C57.1966 10.794 56.9491 10.8472 56.7291 10.9095C56.5678 10.9608 56.4156 11.0268 56.2726 11.1075C56.1333 11.1882 56.0196 11.2927 55.9316 11.421C55.8473 11.5457 55.8051 11.7015 55.8051 11.8885C55.8051 12.0498 55.8454 12.2038 55.9261 12.3505C56.0104 12.4972 56.1388 12.6163 56.3111 12.708C56.4871 12.7997 56.7163 12.8455 56.9986 12.8455ZM63.6811 13.665C63.1274 13.665 62.6526 13.5275 62.2566 13.2525C61.8606 12.9738 61.5544 12.598 61.3381 12.125C61.1254 11.652 61.0191 11.1185 61.0191 10.5245C61.0191 9.9305 61.1254 9.397 61.3381 8.924C61.5544 8.451 61.8606 8.07883 62.2566 7.8075C62.6526 7.5325 63.1256 7.395 63.6756 7.395C64.2366 7.395 64.7078 7.53067 65.0891 7.802C65.4704 8.07333 65.7583 8.4455 65.9526 8.9185C66.1506 9.3915 66.2496 9.92683 66.2496 10.5245C66.2496 11.1148 66.1506 11.6483 65.9526 12.125C65.7583 12.598 65.4704 12.9738 65.0891 13.2525C64.7078 13.5275 64.2384 13.665 63.6811 13.665ZM63.8021 12.7685C64.2018 12.7685 64.5299 12.6732 64.7866 12.4825C65.0433 12.2882 65.2321 12.0223 65.3531 11.685C65.4778 11.344 65.5401 10.9572 65.5401 10.5245C65.5401 10.0845 65.4778 9.69767 65.3531 9.364C65.2321 9.02667 65.0451 8.7645 64.7921 8.5775C64.5391 8.38683 64.2183 8.2915 63.8296 8.2915C63.4263 8.2915 63.0926 8.3905 62.8286 8.5885C62.5683 8.7865 62.3739 9.05417 62.2456 9.3915C62.1209 9.72883 62.0586 10.1065 62.0586 10.5245C62.0586 10.9462 62.1228 11.3275 62.2511 11.6685C62.3794 12.0058 62.5719 12.2735 62.8286 12.4715C63.0889 12.6695 63.4134 12.7685 63.8021 12.7685ZM65.5401 13.5V9.1275H65.4301V5.58H66.4146V13.5H65.5401ZM70.5295 13.665C69.9465 13.665 69.4369 13.5367 69.0005 13.28C68.5679 13.0197 68.2305 12.6585 67.9885 12.1965C67.7465 11.7308 67.6255 11.1882 67.6255 10.5685C67.6255 9.9195 67.7447 9.3585 67.983 8.8855C68.2214 8.40883 68.5532 8.04217 68.9785 7.7855C69.4075 7.52517 69.9099 7.395 70.4855 7.395C71.0832 7.395 71.591 7.5325 72.009 7.8075C72.4307 8.0825 72.746 8.47483 72.955 8.9845C73.1677 9.49417 73.2594 10.101 73.23 10.805H72.24V10.453C72.229 9.72333 72.0805 9.17883 71.7945 8.8195C71.5085 8.4565 71.0832 8.275 70.5185 8.275C69.9135 8.275 69.4534 8.46933 69.138 8.858C68.8227 9.24667 68.665 9.804 68.665 10.53C68.665 11.2303 68.8227 11.773 69.138 12.158C69.4534 12.543 69.9025 12.7355 70.4855 12.7355C70.8779 12.7355 71.2189 12.6457 71.5085 12.466C71.7982 12.2863 72.0255 12.0278 72.1905 11.6905L73.131 12.015C72.9 12.5393 72.5517 12.9463 72.086 13.236C71.624 13.522 71.1052 13.665 70.5295 13.665ZM68.335 10.805V10.0185H72.724V10.805H68.335ZM74.4157 13.5V12.422H75.4937V13.5H74.4157ZM79.7071 13.665C79.1057 13.665 78.5942 13.5312 78.1726 13.2635C77.7546 12.9922 77.4356 12.62 77.2156 12.147C76.9956 11.674 76.8819 11.135 76.8746 10.53C76.8819 9.91033 76.9974 9.36583 77.2211 8.8965C77.4484 8.4235 77.7729 8.055 78.1946 7.791C78.6162 7.527 79.1241 7.395 79.7181 7.395C80.3451 7.395 80.8841 7.549 81.3351 7.857C81.7897 8.165 82.0941 8.58667 82.2481 9.122L81.2801 9.4135C81.1554 9.06883 80.9519 8.80117 80.6696 8.6105C80.3909 8.41983 80.0701 8.3245 79.7071 8.3245C79.3001 8.3245 78.9646 8.41983 78.7006 8.6105C78.4366 8.7975 78.2404 9.05783 78.1121 9.3915C77.9837 9.7215 77.9177 10.101 77.9141 10.53C77.9214 11.19 78.0736 11.7235 78.3706 12.1305C78.6712 12.5338 79.1167 12.7355 79.7071 12.7355C80.0957 12.7355 80.4184 12.6475 80.6751 12.4715C80.9317 12.2918 81.1261 12.0333 81.2581 11.696L82.2481 11.9545C82.0427 12.5082 81.7219 12.9317 81.2856 13.225C80.8492 13.5183 80.3231 13.665 79.7071 13.665ZM85.7395 13.665C85.1491 13.665 84.6395 13.5312 84.2105 13.2635C83.7851 12.9958 83.457 12.6255 83.226 12.1525C82.995 11.6795 82.8795 11.1368 82.8795 10.5245C82.8795 9.90117 82.9968 9.35483 83.2315 8.8855C83.4661 8.41617 83.798 8.05133 84.227 7.791C84.656 7.527 85.1601 7.395 85.7395 7.395C86.3335 7.395 86.845 7.52883 87.274 7.7965C87.703 8.0605 88.0311 8.429 88.2585 8.902C88.4895 9.37133 88.605 9.91217 88.605 10.5245C88.605 11.1442 88.4895 11.6905 88.2585 12.1635C88.0275 12.6328 87.6975 13.0013 87.2685 13.269C86.8395 13.533 86.3298 13.665 85.7395 13.665ZM85.7395 12.7355C86.3555 12.7355 86.8138 12.5302 87.1145 12.1195C87.4151 11.7088 87.5655 11.1772 87.5655 10.5245C87.5655 9.8535 87.4133 9.32 87.109 8.924C86.8046 8.52433 86.3481 8.3245 85.7395 8.3245C85.3251 8.3245 84.9841 8.418 84.7165 8.605C84.4488 8.792 84.249 9.0505 84.117 9.3805C83.985 9.7105 83.919 10.0918 83.919 10.5245C83.919 11.1918 84.073 11.7272 84.381 12.1305C84.689 12.5338 85.1418 12.7355 85.7395 12.7355ZM96.9164 13.5L96.9219 9.6995C96.9219 9.25583 96.8027 8.90933 96.5644 8.66C96.3297 8.407 96.0236 8.2805 95.6459 8.2805C95.4259 8.2805 95.2169 8.33183 95.0189 8.4345C94.8209 8.5335 94.6596 8.69117 94.5349 8.9075C94.4102 9.12017 94.3479 9.39333 94.3479 9.727L93.8309 9.518C93.8236 9.09633 93.9097 8.72783 94.0894 8.4125C94.2727 8.0935 94.5221 7.846 94.8374 7.67C95.1527 7.494 95.5084 7.406 95.9044 7.406C96.5241 7.406 97.0117 7.59483 97.3674 7.9725C97.7231 8.3465 97.9009 8.85067 97.9009 9.485L97.8954 13.5H96.9164ZM89.8104 13.5V7.56H90.6849V9.1495H90.7949V13.5H89.8104ZM93.3689 13.5L93.3744 9.738C93.3744 9.28333 93.2571 8.92767 93.0224 8.671C92.7877 8.41067 92.4761 8.2805 92.0874 8.2805C91.7024 8.2805 91.3907 8.4125 91.1524 8.6765C90.9141 8.9405 90.7949 9.29067 90.7949 9.727L90.2779 9.419C90.2779 9.034 90.3696 8.68933 90.5529 8.385C90.7362 8.08067 90.9856 7.84233 91.3009 7.67C91.6162 7.494 91.9737 7.406 92.3734 7.406C92.7731 7.406 93.1214 7.49033 93.4184 7.659C93.7154 7.82767 93.9446 8.06967 94.1059 8.385C94.2672 8.69667 94.3479 9.06883 94.3479 9.5015L94.3424 13.5H93.3689ZM99.5095 13.5V12.422H100.587V13.5H99.5095ZM103.987 13.665C103.543 13.665 103.171 13.5843 102.87 13.423C102.573 13.258 102.348 13.0417 102.194 12.774C102.043 12.5063 101.968 12.213 101.968 11.894C101.968 11.5823 102.027 11.3128 102.144 11.0855C102.265 10.8545 102.434 10.6638 102.65 10.5135C102.867 10.3595 103.125 10.2385 103.426 10.1505C103.708 10.0735 104.023 10.0075 104.372 9.9525C104.724 9.89383 105.079 9.84067 105.439 9.793C105.798 9.74533 106.134 9.6995 106.445 9.6555L106.093 9.859C106.104 9.331 105.998 8.9405 105.774 8.6875C105.554 8.4345 105.173 8.308 104.63 8.308C104.271 8.308 103.956 8.3905 103.684 8.5555C103.417 8.71683 103.228 8.98083 103.118 9.3475L102.188 9.067C102.331 8.54633 102.608 8.1375 103.019 7.8405C103.429 7.5435 103.97 7.395 104.641 7.395C105.18 7.395 105.642 7.49217 106.027 7.6865C106.416 7.87717 106.695 8.16683 106.863 8.5555C106.948 8.73883 107.001 8.93867 107.023 9.155C107.045 9.36767 107.056 9.59133 107.056 9.826V13.5H106.187V12.0755L106.39 12.2075C106.167 12.6878 105.853 13.0508 105.45 13.2965C105.05 13.5422 104.562 13.665 103.987 13.665ZM104.135 12.8455C104.487 12.8455 104.792 12.7832 105.048 12.6585C105.309 12.5302 105.518 12.3633 105.675 12.158C105.833 11.949 105.936 11.7217 105.983 11.476C106.038 11.2927 106.068 11.0892 106.071 10.8655C106.079 10.6382 106.082 10.464 106.082 10.343L106.423 10.4915C106.104 10.5355 105.791 10.5777 105.483 10.618C105.175 10.6583 104.883 10.7023 104.608 10.75C104.333 10.794 104.086 10.8472 103.866 10.9095C103.704 10.9608 103.552 11.0268 103.409 11.1075C103.27 11.1882 103.156 11.2927 103.068 11.421C102.984 11.5457 102.942 11.7015 102.942 11.8885C102.942 12.0498 102.982 12.2038 103.063 12.3505C103.147 12.4972 103.275 12.6163 103.448 12.708C103.624 12.7997 103.853 12.8455 104.135 12.8455ZM110.741 13.654C110.359 13.654 110.031 13.5935 109.756 13.4725C109.485 13.3515 109.259 13.1902 109.08 12.9885C108.9 12.7868 108.759 12.5632 108.656 12.3175C108.554 12.0718 108.48 11.8207 108.436 11.564C108.396 11.3073 108.376 11.0672 108.376 10.8435V7.56H109.366V10.5355C109.366 10.8142 109.391 11.0837 109.443 11.344C109.494 11.6043 109.58 11.839 109.701 12.048C109.826 12.257 109.991 12.422 110.196 12.543C110.405 12.664 110.666 12.7245 110.977 12.7245C111.223 12.7245 111.447 12.6823 111.648 12.598C111.85 12.5137 112.022 12.389 112.165 12.224C112.308 12.0553 112.418 11.8427 112.495 11.586C112.572 11.3293 112.611 11.0305 112.611 10.6895L113.254 10.8875C113.254 11.4595 113.15 11.9527 112.941 12.367C112.735 12.7813 112.444 13.1003 112.066 13.324C111.692 13.544 111.25 13.654 110.741 13.654ZM112.721 13.5V11.9105H112.611V7.56H113.595V13.5H112.721Z" fill="white"/>
</svg>
