<svg width="191" height="18" viewBox="0 0 191 18" fill="none" xmlns="http://www.w3.org/2000/svg">
<path d="M16.7399 3.41999H1.2599C1.0619 3.41999 0.899902 3.58199 0.899902 3.77999V14.22C0.899902 14.22 0.899902 14.22 0.899902 14.238C0.899902 14.256 0.899902 14.256 0.899902 14.274C0.899902 14.292 0.899902 14.292 0.899902 14.31C0.899902 14.328 0.899902 14.328 0.917902 14.346C0.917902 14.364 0.917902 14.364 0.935902 14.382C0.935902 14.4 0.953902 14.4 0.953902 14.418C0.953902 14.436 0.971902 14.436 0.971902 14.454C0.971902 14.454 0.971902 14.454 0.971902 14.472C0.971902 14.472 0.971902 14.472 0.989902 14.49L1.0079 14.508L1.0259 14.526C1.0259 14.526 1.0439 14.544 1.0619 14.544C1.0799 14.544 1.0799 14.562 1.0979 14.562C1.1159 14.562 1.1159 14.58 1.1339 14.58C1.1519 14.58 1.1519 14.58 1.1699 14.598C1.1879 14.598 1.1879 14.598 1.2059 14.598C1.2239 14.598 1.2239 14.598 1.2419 14.598H1.2599H16.7399C16.7759 14.598 16.7939 14.598 16.8119 14.598H16.8299C16.8479 14.598 16.8659 14.58 16.8839 14.58L16.9019 14.562C16.9199 14.562 16.9379 14.544 16.9379 14.526L16.9559 14.508C16.9739 14.49 16.9739 14.49 16.9919 14.472L17.0099 14.454C17.0099 14.454 17.0099 14.454 17.0099 14.436C17.0099 14.418 17.0279 14.418 17.0279 14.4C17.0279 14.4 17.0459 14.382 17.0459 14.364C17.0459 14.346 17.0459 14.346 17.0639 14.328C17.0819 14.31 17.0639 14.31 17.0819 14.292C17.0819 14.274 17.0819 14.274 17.0819 14.256C17.0819 14.238 17.0819 14.238 17.0819 14.22C17.0819 14.22 17.0819 14.22 17.0819 14.202V3.77999C17.0999 3.58199 16.9379 3.41999 16.7399 3.41999ZM1.6199 5.77799L6.4799 9.62998L1.6199 13.482V5.77799ZM2.3039 13.86L7.0739 10.08L8.7839 11.43C8.8559 11.484 8.9279 11.502 8.9999 11.502C9.0719 11.502 9.1619 11.484 9.2159 11.43L10.9259 10.08L15.6959 13.86H2.3039ZM16.3799 13.482L11.5199 9.62998L16.3799 5.77799V13.482ZM16.3799 4.85999L16.1639 5.03999L8.9999 10.71L1.8359 5.03999L1.6199 4.85999V4.13999H16.3799V4.85999Z" fill="white"/>
<path d="M30.9995 13.5V10.5245C30.9995 10.2422 30.9738 9.97083 30.9225 9.7105C30.8748 9.45017 30.7887 9.21733 30.664 9.012C30.543 8.803 30.378 8.638 30.169 8.517C29.9637 8.396 29.7033 8.3355 29.388 8.3355C29.1423 8.3355 28.9187 8.37767 28.717 8.462C28.519 8.54267 28.3485 8.66733 28.2055 8.836C28.0625 9.00467 27.9507 9.21733 27.87 9.474C27.793 9.727 27.7545 10.0258 27.7545 10.3705L27.111 10.1725C27.111 9.59683 27.2137 9.10367 27.419 8.693C27.628 8.27867 27.9195 7.9615 28.2935 7.7415C28.6712 7.51783 29.1148 7.406 29.6245 7.406C30.0095 7.406 30.3377 7.4665 30.609 7.5875C30.8803 7.7085 31.1058 7.86983 31.2855 8.0715C31.4652 8.2695 31.6063 8.49317 31.709 8.7425C31.8117 8.98817 31.8832 9.23933 31.9235 9.496C31.9675 9.749 31.9895 9.98917 31.9895 10.2165V13.5H30.9995ZM26.7645 13.5V7.56H27.6445V9.1495H27.7545V13.5H26.7645ZM35.8957 13.665C35.3054 13.665 34.7957 13.5312 34.3667 13.2635C33.9414 12.9958 33.6132 12.6255 33.3822 12.1525C33.1512 11.6795 33.0357 11.1368 33.0357 10.5245C33.0357 9.90117 33.153 9.35483 33.3877 8.8855C33.6224 8.41617 33.9542 8.05133 34.3832 7.791C34.8122 7.527 35.3164 7.395 35.8957 7.395C36.4897 7.395 37.0012 7.52883 37.4302 7.7965C37.8592 8.0605 38.1874 8.429 38.4147 8.902C38.6457 9.37133 38.7612 9.91217 38.7612 10.5245C38.7612 11.1442 38.6457 11.6905 38.4147 12.1635C38.1837 12.6328 37.8537 13.0013 37.4247 13.269C36.9957 13.533 36.486 13.665 35.8957 13.665ZM35.8957 12.7355C36.5117 12.7355 36.97 12.5302 37.2707 12.1195C37.5714 11.7088 37.7217 11.1772 37.7217 10.5245C37.7217 9.8535 37.5695 9.32 37.2652 8.924C36.9609 8.52433 36.5044 8.3245 35.8957 8.3245C35.4814 8.3245 35.1404 8.418 34.8727 8.605C34.605 8.792 34.4052 9.0505 34.2732 9.3805C34.1412 9.7105 34.0752 10.0918 34.0752 10.5245C34.0752 11.1918 34.2292 11.7272 34.5372 12.1305C34.8452 12.5338 35.298 12.7355 35.8957 12.7355ZM43.2886 13.5C42.9366 13.5697 42.5883 13.5972 42.2436 13.5825C41.9026 13.5715 41.5983 13.5037 41.3306 13.379C41.063 13.2507 40.8595 13.0527 40.7201 12.785C40.6028 12.5503 40.5386 12.3138 40.5276 12.0755C40.5203 11.8335 40.5166 11.5603 40.5166 11.256V5.91H41.4956V11.212C41.4956 11.454 41.4975 11.6612 41.5011 11.8335C41.5085 12.0058 41.547 12.1543 41.6166 12.279C41.7486 12.5137 41.9576 12.6512 42.2436 12.6915C42.5333 12.7318 42.8816 12.7208 43.2886 12.6585V13.5ZM39.3121 8.3685V7.56H43.2886V8.3685H39.3121ZM44.6046 6.5095V5.4975H45.5836V6.5095H44.6046ZM44.6046 13.5V7.56H45.5836V13.5H44.6046ZM47.8004 13.5V7.2355C47.8004 7.0815 47.8077 6.92567 47.8224 6.768C47.837 6.60667 47.87 6.45083 47.9214 6.3005C47.9727 6.1465 48.057 6.00533 48.1744 5.877C48.31 5.72667 48.4585 5.62033 48.6199 5.558C48.7812 5.492 48.9444 5.45167 49.1094 5.437C49.278 5.42233 49.4375 5.415 49.5879 5.415H50.3414V6.229H49.6429C49.3532 6.229 49.1369 6.3005 48.9939 6.4435C48.8509 6.58283 48.7794 6.7955 48.7794 7.0815V13.5H47.8004ZM46.7939 8.3685V7.56H50.3414V8.3685H46.7939ZM51.4964 6.5095V5.4975H52.4754V6.5095H51.4964ZM51.4964 13.5V7.56H52.4754V13.5H51.4964ZM56.6329 13.665C56.0315 13.665 55.52 13.5312 55.0984 13.2635C54.6804 12.9922 54.3614 12.62 54.1414 12.147C53.9214 11.674 53.8077 11.135 53.8004 10.53C53.8077 9.91033 53.9232 9.36583 54.1469 8.8965C54.3742 8.4235 54.6987 8.055 55.1204 7.791C55.542 7.527 56.0499 7.395 56.6439 7.395C57.2709 7.395 57.8099 7.549 58.2609 7.857C58.7155 8.165 59.0199 8.58667 59.1739 9.122L58.2059 9.4135C58.0812 9.06883 57.8777 8.80117 57.5954 8.6105C57.3167 8.41983 56.9959 8.3245 56.6329 8.3245C56.2259 8.3245 55.8904 8.41983 55.6264 8.6105C55.3624 8.7975 55.1662 9.05783 55.0379 9.3915C54.9095 9.7215 54.8435 10.101 54.8399 10.53C54.8472 11.19 54.9994 11.7235 55.2964 12.1305C55.597 12.5338 56.0425 12.7355 56.6329 12.7355C57.0215 12.7355 57.3442 12.6475 57.6009 12.4715C57.8575 12.2918 58.0519 12.0333 58.1839 11.696L59.1739 11.9545C58.9685 12.5082 58.6477 12.9317 58.2114 13.225C57.775 13.5183 57.2489 13.665 56.6329 13.665ZM61.9312 13.665C61.4875 13.665 61.1153 13.5843 60.8147 13.423C60.5177 13.258 60.2922 13.0417 60.1382 12.774C59.9878 12.5063 59.9127 12.213 59.9127 11.894C59.9127 11.5823 59.9713 11.3128 60.0887 11.0855C60.2097 10.8545 60.3783 10.6638 60.5947 10.5135C60.811 10.3595 61.0695 10.2385 61.3702 10.1505C61.6525 10.0735 61.9678 10.0075 62.3162 9.9525C62.6682 9.89383 63.0238 9.84067 63.3832 9.793C63.7425 9.74533 64.078 9.6995 64.3897 9.6555L64.0377 9.859C64.0487 9.331 63.9423 8.9405 63.7187 8.6875C63.4987 8.4345 63.1173 8.308 62.5747 8.308C62.2153 8.308 61.9 8.3905 61.6287 8.5555C61.361 8.71683 61.1722 8.98083 61.0622 9.3475L60.1327 9.067C60.2757 8.54633 60.5525 8.1375 60.9632 7.8405C61.3738 7.5435 61.9147 7.395 62.5857 7.395C63.1247 7.395 63.5867 7.49217 63.9717 7.6865C64.3603 7.87717 64.639 8.16683 64.8077 8.5555C64.892 8.73883 64.9452 8.93867 64.9672 9.155C64.9892 9.36767 65.0002 9.59133 65.0002 9.826V13.5H64.1312V12.0755L64.3347 12.2075C64.111 12.6878 63.7975 13.0508 63.3942 13.2965C62.9945 13.5422 62.5068 13.665 61.9312 13.665ZM62.0797 12.8455C62.4317 12.8455 62.736 12.7832 62.9927 12.6585C63.253 12.5302 63.462 12.3633 63.6197 12.158C63.7773 11.949 63.88 11.7217 63.9277 11.476C63.9827 11.2927 64.012 11.0892 64.0157 10.8655C64.023 10.6382 64.0267 10.464 64.0267 10.343L64.3677 10.4915C64.0487 10.5355 63.7352 10.5777 63.4272 10.618C63.1192 10.6583 62.8277 10.7023 62.5527 10.75C62.2777 10.794 62.0302 10.8472 61.8102 10.9095C61.6488 10.9608 61.4967 11.0268 61.3537 11.1075C61.2143 11.1882 61.1007 11.2927 61.0127 11.421C60.9283 11.5457 60.8862 11.7015 60.8862 11.8885C60.8862 12.0498 60.9265 12.2038 61.0072 12.3505C61.0915 12.4972 61.2198 12.6163 61.3922 12.708C61.5682 12.7997 61.7973 12.8455 62.0797 12.8455ZM69.7467 13.5C69.3947 13.5697 69.0463 13.5972 68.7017 13.5825C68.3607 13.5715 68.0563 13.5037 67.7887 13.379C67.521 13.2507 67.3175 13.0527 67.1782 12.785C67.0608 12.5503 66.9967 12.3138 66.9857 12.0755C66.9783 11.8335 66.9747 11.5603 66.9747 11.256V5.91H67.9537V11.212C67.9537 11.454 67.9555 11.6612 67.9592 11.8335C67.9665 12.0058 68.005 12.1543 68.0747 12.279C68.2067 12.5137 68.4157 12.6512 68.7017 12.6915C68.9913 12.7318 69.3397 12.7208 69.7467 12.6585V13.5ZM65.7702 8.3685V7.56H69.7467V8.3685H65.7702ZM71.0626 6.5095V5.4975H72.0416V6.5095H71.0626ZM71.0626 13.5V7.56H72.0416V13.5H71.0626ZM76.2219 13.665C75.6315 13.665 75.1219 13.5312 74.6929 13.2635C74.2675 12.9958 73.9394 12.6255 73.7084 12.1525C73.4774 11.6795 73.3619 11.1368 73.3619 10.5245C73.3619 9.90117 73.4792 9.35483 73.7139 8.8855C73.9485 8.41617 74.2804 8.05133 74.7094 7.791C75.1384 7.527 75.6425 7.395 76.2219 7.395C76.8159 7.395 77.3274 7.52883 77.7564 7.7965C78.1854 8.0605 78.5135 8.429 78.7409 8.902C78.9719 9.37133 79.0874 9.91217 79.0874 10.5245C79.0874 11.1442 78.9719 11.6905 78.7409 12.1635C78.5099 12.6328 78.1799 13.0013 77.7509 13.269C77.3219 13.533 76.8122 13.665 76.2219 13.665ZM76.2219 12.7355C76.8379 12.7355 77.2962 12.5302 77.5969 12.1195C77.8975 11.7088 78.0479 11.1772 78.0479 10.5245C78.0479 9.8535 77.8957 9.32 77.5914 8.924C77.287 8.52433 76.8305 8.3245 76.2219 8.3245C75.8075 8.3245 75.4665 8.418 75.1989 8.605C74.9312 8.792 74.7314 9.0505 74.5994 9.3805C74.4674 9.7105 74.4014 10.0918 74.4014 10.5245C74.4014 11.1918 74.5554 11.7272 74.8634 12.1305C75.1714 12.5338 75.6242 12.7355 76.2219 12.7355ZM84.5278 13.5V10.5245C84.5278 10.2422 84.5022 9.97083 84.4508 9.7105C84.4032 9.45017 84.317 9.21733 84.1923 9.012C84.0713 8.803 83.9063 8.638 83.6973 8.517C83.492 8.396 83.2317 8.3355 82.9163 8.3355C82.6707 8.3355 82.447 8.37767 82.2453 8.462C82.0473 8.54267 81.8768 8.66733 81.7338 8.836C81.5908 9.00467 81.479 9.21733 81.3983 9.474C81.3213 9.727 81.2828 10.0258 81.2828 10.3705L80.6393 10.1725C80.6393 9.59683 80.742 9.10367 80.9473 8.693C81.1563 8.27867 81.4478 7.9615 81.8218 7.7415C82.1995 7.51783 82.6432 7.406 83.1528 7.406C83.5378 7.406 83.866 7.4665 84.1373 7.5875C84.4087 7.7085 84.6342 7.86983 84.8138 8.0715C84.9935 8.2695 85.1347 8.49317 85.2373 8.7425C85.34 8.98817 85.4115 9.23933 85.4518 9.496C85.4958 9.749 85.5178 9.98917 85.5178 10.2165V13.5H84.5278ZM80.2928 13.5V7.56H81.1728V9.1495H81.2828V13.5H80.2928ZM89.1917 13.6595C88.4841 13.6595 87.9029 13.5055 87.4482 13.1975C86.9972 12.8858 86.7204 12.4513 86.6177 11.894L87.6187 11.7345C87.6994 12.0572 87.8846 12.3138 88.1742 12.5045C88.4639 12.6915 88.8232 12.785 89.2522 12.785C89.6592 12.785 89.9782 12.7007 90.2092 12.532C90.4402 12.3633 90.5557 12.1342 90.5557 11.8445C90.5557 11.6758 90.5172 11.5402 90.4402 11.4375C90.3632 11.3312 90.2037 11.2322 89.9617 11.1405C89.7234 11.0488 89.3622 10.9388 88.8782 10.8105C88.3539 10.6712 87.9414 10.5263 87.6407 10.376C87.3401 10.2257 87.1256 10.0515 86.9972 9.8535C86.8689 9.6555 86.8047 9.41533 86.8047 9.133C86.8047 8.78467 86.9001 8.48033 87.0907 8.22C87.2814 7.956 87.5472 7.7525 87.8882 7.6095C88.2329 7.4665 88.6326 7.395 89.0872 7.395C89.5382 7.395 89.9416 7.4665 90.2972 7.6095C90.6529 7.7525 90.9389 7.956 91.1552 8.22C91.3752 8.48033 91.5054 8.78467 91.5457 9.133L90.5447 9.3145C90.4971 8.9955 90.3431 8.74433 90.0827 8.561C89.8261 8.37767 89.4942 8.2805 89.0872 8.2695C88.7022 8.25483 88.3887 8.32267 88.1467 8.473C87.9084 8.62333 87.7892 8.82683 87.7892 9.0835C87.7892 9.2265 87.8332 9.34933 87.9212 9.452C88.0129 9.55467 88.1797 9.65183 88.4217 9.7435C88.6674 9.83517 89.0231 9.93967 89.4887 10.057C90.0131 10.189 90.4256 10.3338 90.7262 10.4915C91.0306 10.6455 91.2469 10.8288 91.3752 11.0415C91.5036 11.2505 91.5677 11.509 91.5677 11.817C91.5677 12.389 91.3569 12.84 90.9352 13.17C90.5136 13.4963 89.9324 13.6595 89.1917 13.6595ZM97.0047 14.655C96.4144 14.655 95.8681 14.5542 95.3657 14.3525C94.8671 14.1508 94.4326 13.8685 94.0622 13.5055C93.6919 13.1425 93.4041 12.7153 93.1987 12.224C92.9934 11.7327 92.8907 11.1992 92.8907 10.6235C92.8907 9.97083 92.9934 9.386 93.1987 8.869C93.4077 8.34833 93.6974 7.90467 94.0677 7.538C94.4417 7.17133 94.8781 6.89083 95.3767 6.6965C95.8791 6.50217 96.4236 6.405 97.0102 6.405C97.7069 6.405 98.3156 6.515 98.8362 6.735C99.3569 6.95133 99.7877 7.24833 100.129 7.626C100.473 8 100.726 8.4235 100.888 8.8965C101.053 9.3695 101.124 9.86267 101.102 10.376C101.077 11.0763 100.921 11.6098 100.635 11.9765C100.349 12.3432 99.9289 12.5265 99.3752 12.5265C99.0526 12.5265 98.7629 12.4513 98.5062 12.301C98.2496 12.1507 98.0754 11.9343 97.9837 11.652L98.2752 11.674C98.1359 11.9453 97.9379 12.1397 97.6812 12.257C97.4246 12.3707 97.1587 12.4275 96.8837 12.4275C96.5317 12.4275 96.2219 12.3523 95.9542 12.202C95.6902 12.048 95.4812 11.8353 95.3272 11.564C95.1769 11.289 95.1017 10.9718 95.1017 10.6125C95.1017 10.2385 95.1806 9.91583 95.3382 9.6445C95.4959 9.37317 95.7104 9.16417 95.9817 9.0175C96.2531 8.86717 96.5592 8.792 96.9002 8.792C97.1386 8.792 97.3861 8.8415 97.6427 8.9405C97.8994 9.0395 98.0974 9.18983 98.2367 9.3915L98.0167 9.6555V8.946H98.6767L98.6657 10.827C98.6657 11.102 98.7244 11.3183 98.8417 11.476C98.9627 11.6337 99.1497 11.7125 99.4027 11.7125C99.5971 11.7125 99.7529 11.6575 99.8702 11.5475C99.9912 11.4375 100.081 11.2872 100.14 11.0965C100.198 10.9022 100.231 10.6767 100.239 10.42C100.257 9.85533 100.18 9.37133 100.008 8.968C99.8354 8.56467 99.5952 8.23283 99.2872 7.9725C98.9829 7.71217 98.6382 7.5215 98.2532 7.4005C97.8719 7.27583 97.4759 7.2135 97.0652 7.2135C96.5336 7.2135 96.0606 7.29967 95.6462 7.472C95.2356 7.64433 94.8872 7.88633 94.6012 8.198C94.3189 8.506 94.1044 8.86533 93.9577 9.276C93.8147 9.68667 93.7469 10.1303 93.7542 10.607C93.7652 11.0873 93.8532 11.5273 94.0182 11.927C94.1832 12.323 94.4124 12.664 94.7057 12.95C95.0027 13.236 95.3492 13.456 95.7452 13.61C96.1449 13.7677 96.5794 13.8465 97.0487 13.8465C97.3347 13.8465 97.6189 13.8117 97.9012 13.742C98.1872 13.6723 98.4439 13.577 98.6712 13.456L98.9572 14.193C98.6566 14.347 98.3412 14.4625 98.0112 14.5395C97.6812 14.6165 97.3457 14.655 97.0047 14.655ZM96.9387 11.608C97.2137 11.608 97.4392 11.5292 97.6152 11.3715C97.7949 11.2138 97.8847 10.959 97.8847 10.607C97.8847 10.2733 97.8022 10.0222 97.6372 9.8535C97.4722 9.68483 97.2467 9.6005 96.9607 9.6005C96.6307 9.6005 96.3796 9.69033 96.2072 9.87C96.0386 10.046 95.9542 10.2917 95.9542 10.607C95.9542 10.926 96.0422 11.1735 96.2182 11.3495C96.3942 11.5218 96.6344 11.608 96.9387 11.608ZM104.366 13.5L102.21 7.56H103.2L104.867 12.2515L106.528 7.56H107.523L105.367 13.5H104.366ZM109.874 13.665C109.43 13.665 109.058 13.5843 108.757 13.423C108.46 13.258 108.235 13.0417 108.081 12.774C107.93 12.5063 107.855 12.213 107.855 11.894C107.855 11.5823 107.914 11.3128 108.031 11.0855C108.152 10.8545 108.321 10.6638 108.537 10.5135C108.753 10.3595 109.012 10.2385 109.313 10.1505C109.595 10.0735 109.91 10.0075 110.259 9.9525C110.611 9.89383 110.966 9.84067 111.326 9.793C111.685 9.74533 112.02 9.6995 112.332 9.6555L111.98 9.859C111.991 9.331 111.885 8.9405 111.661 8.6875C111.441 8.4345 111.06 8.308 110.517 8.308C110.158 8.308 109.842 8.3905 109.571 8.5555C109.303 8.71683 109.115 8.98083 109.005 9.3475L108.075 9.067C108.218 8.54633 108.495 8.1375 108.906 7.8405C109.316 7.5435 109.857 7.395 110.528 7.395C111.067 7.395 111.529 7.49217 111.914 7.6865C112.303 7.87717 112.581 8.16683 112.75 8.5555C112.834 8.73883 112.888 8.93867 112.91 9.155C112.932 9.36767 112.943 9.59133 112.943 9.826V13.5H112.074V12.0755L112.277 12.2075C112.053 12.6878 111.74 13.0508 111.337 13.2965C110.937 13.5422 110.449 13.665 109.874 13.665ZM110.022 12.8455C110.374 12.8455 110.678 12.7832 110.935 12.6585C111.195 12.5302 111.404 12.3633 111.562 12.158C111.72 11.949 111.822 11.7217 111.87 11.476C111.925 11.2927 111.954 11.0892 111.958 10.8655C111.965 10.6382 111.969 10.464 111.969 10.343L112.31 10.4915C111.991 10.5355 111.678 10.5777 111.37 10.618C111.062 10.6583 110.77 10.7023 110.495 10.75C110.22 10.794 109.973 10.8472 109.753 10.9095C109.591 10.9608 109.439 11.0268 109.296 11.1075C109.157 11.1882 109.043 11.2927 108.955 11.421C108.871 11.5457 108.829 11.7015 108.829 11.8885C108.829 12.0498 108.869 12.2038 108.95 12.3505C109.034 12.4972 109.162 12.6163 109.335 12.708C109.511 12.7997 109.74 12.8455 110.022 12.8455ZM114.483 13.5V5.415H115.462V13.5H114.483ZM117.106 13.5L117.112 5.58H118.102V10.42L120.593 7.56H121.864L119.24 10.53L122.172 13.5H120.802L118.102 10.64V13.5H117.106ZM126.036 13.5C125.684 13.5697 125.335 13.5972 124.991 13.5825C124.65 13.5715 124.345 13.5037 124.078 13.379C123.81 13.2507 123.607 13.0527 123.467 12.785C123.35 12.5503 123.286 12.3138 123.275 12.0755C123.267 11.8335 123.264 11.5603 123.264 11.256V5.91H124.243V11.212C124.243 11.454 124.245 11.6612 124.248 11.8335C124.256 12.0058 124.294 12.1543 124.364 12.279C124.496 12.5137 124.705 12.6512 124.991 12.6915C125.28 12.7318 125.629 12.7208 126.036 12.6585V13.5ZM122.059 8.3685V7.56H126.036V8.3685H122.059ZM127.242 13.5V7.56H128.116V8.9955L127.973 8.8085C128.043 8.62517 128.133 8.4565 128.243 8.3025C128.356 8.1485 128.483 8.022 128.622 7.923C128.776 7.79833 128.95 7.703 129.145 7.637C129.339 7.571 129.537 7.5325 129.739 7.5215C129.94 7.50683 130.129 7.51967 130.305 7.56V8.4785C130.1 8.4235 129.874 8.40883 129.629 8.4345C129.383 8.46017 129.156 8.55 128.947 8.704C128.756 8.83967 128.608 9.00467 128.501 9.199C128.399 9.39333 128.327 9.60417 128.287 9.8315C128.246 10.0552 128.226 10.2843 128.226 10.519V13.5H127.242ZM132.84 13.665C132.397 13.665 132.025 13.5843 131.724 13.423C131.427 13.258 131.201 13.0417 131.047 12.774C130.897 12.5063 130.822 12.213 130.822 11.894C130.822 11.5823 130.881 11.3128 130.998 11.0855C131.119 10.8545 131.288 10.6638 131.504 10.5135C131.72 10.3595 131.979 10.2385 132.279 10.1505C132.562 10.0735 132.877 10.0075 133.225 9.9525C133.577 9.89383 133.933 9.84067 134.292 9.793C134.652 9.74533 134.987 9.6995 135.299 9.6555L134.947 9.859C134.958 9.331 134.852 8.9405 134.628 8.6875C134.408 8.4345 134.027 8.308 133.484 8.308C133.125 8.308 132.809 8.3905 132.538 8.5555C132.27 8.71683 132.081 8.98083 131.971 9.3475L131.042 9.067C131.185 8.54633 131.462 8.1375 131.872 7.8405C132.283 7.5435 132.824 7.395 133.495 7.395C134.034 7.395 134.496 7.49217 134.881 7.6865C135.27 7.87717 135.548 8.16683 135.717 8.5555C135.801 8.73883 135.854 8.93867 135.876 9.155C135.898 9.36767 135.909 9.59133 135.909 9.826V13.5H135.04V12.0755L135.244 12.2075C135.02 12.6878 134.707 13.0508 134.303 13.2965C133.904 13.5422 133.416 13.665 132.84 13.665ZM132.989 12.8455C133.341 12.8455 133.645 12.7832 133.902 12.6585C134.162 12.5302 134.371 12.3633 134.529 12.158C134.687 11.949 134.789 11.7217 134.837 11.476C134.892 11.2927 134.921 11.0892 134.925 10.8655C134.932 10.6382 134.936 10.464 134.936 10.343L135.277 10.4915C134.958 10.5355 134.644 10.5777 134.336 10.618C134.028 10.6583 133.737 10.7023 133.462 10.75C133.187 10.794 132.939 10.8472 132.719 10.9095C132.558 10.9608 132.406 11.0268 132.263 11.1075C132.124 11.1882 132.01 11.2927 131.922 11.421C131.838 11.5457 131.795 11.7015 131.795 11.8885C131.795 12.0498 131.836 12.2038 131.916 12.3505C132.001 12.4972 132.129 12.6163 132.301 12.708C132.477 12.7997 132.707 12.8455 132.989 12.8455ZM139.671 13.665C139.118 13.665 138.643 13.5275 138.247 13.2525C137.851 12.9738 137.545 12.598 137.328 12.125C137.116 11.652 137.009 11.1185 137.009 10.5245C137.009 9.9305 137.116 9.397 137.328 8.924C137.545 8.451 137.851 8.07883 138.247 7.8075C138.643 7.5325 139.116 7.395 139.666 7.395C140.227 7.395 140.698 7.53067 141.079 7.802C141.461 8.07333 141.749 8.4455 141.943 8.9185C142.141 9.3915 142.24 9.92683 142.24 10.5245C142.24 11.1148 142.141 11.6483 141.943 12.125C141.749 12.598 141.461 12.9738 141.079 13.2525C140.698 13.5275 140.229 13.665 139.671 13.665ZM139.792 12.7685C140.192 12.7685 140.52 12.6732 140.777 12.4825C141.034 12.2882 141.222 12.0223 141.343 11.685C141.468 11.344 141.53 10.9572 141.53 10.5245C141.53 10.0845 141.468 9.69767 141.343 9.364C141.222 9.02667 141.035 8.7645 140.782 8.5775C140.529 8.38683 140.209 8.2915 139.82 8.2915C139.417 8.2915 139.083 8.3905 138.819 8.5885C138.559 8.7865 138.364 9.05417 138.236 9.3915C138.111 9.72883 138.049 10.1065 138.049 10.5245C138.049 10.9462 138.113 11.3275 138.241 11.6685C138.37 12.0058 138.562 12.2735 138.819 12.4715C139.079 12.6695 139.404 12.7685 139.792 12.7685ZM141.53 13.5V9.1275H141.42V5.58H142.405V13.5H141.53ZM146.52 13.665C145.937 13.665 145.427 13.5367 144.991 13.28C144.558 13.0197 144.221 12.6585 143.979 12.1965C143.737 11.7308 143.616 11.1882 143.616 10.5685C143.616 9.9195 143.735 9.3585 143.973 8.8855C144.212 8.40883 144.543 8.04217 144.969 7.7855C145.398 7.52517 145.9 7.395 146.476 7.395C147.073 7.395 147.581 7.5325 147.999 7.8075C148.421 8.0825 148.736 8.47483 148.945 8.9845C149.158 9.49417 149.25 10.101 149.22 10.805H148.23V10.453C148.219 9.72333 148.071 9.17883 147.785 8.8195C147.499 8.4565 147.073 8.275 146.509 8.275C145.904 8.275 145.444 8.46933 145.128 8.858C144.813 9.24667 144.655 9.804 144.655 10.53C144.655 11.2303 144.813 11.773 145.128 12.158C145.444 12.543 145.893 12.7355 146.476 12.7355C146.868 12.7355 147.209 12.6457 147.499 12.466C147.788 12.2863 148.016 12.0278 148.181 11.6905L149.121 12.015C148.89 12.5393 148.542 12.9463 148.076 13.236C147.614 13.522 147.095 13.665 146.52 13.665ZM144.325 10.805V10.0185H148.714V10.805H144.325ZM150.406 13.5V12.422H151.484V13.5H150.406ZM155.697 13.665C155.096 13.665 154.584 13.5312 154.163 13.2635C153.745 12.9922 153.426 12.62 153.206 12.147C152.986 11.674 152.872 11.135 152.865 10.53C152.872 9.91033 152.988 9.36583 153.211 8.8965C153.439 8.4235 153.763 8.055 154.185 7.791C154.606 7.527 155.114 7.395 155.708 7.395C156.335 7.395 156.874 7.549 157.325 7.857C157.78 8.165 158.084 8.58667 158.238 9.122L157.27 9.4135C157.146 9.06883 156.942 8.80117 156.66 8.6105C156.381 8.41983 156.06 8.3245 155.697 8.3245C155.29 8.3245 154.955 8.41983 154.691 8.6105C154.427 8.7975 154.231 9.05783 154.102 9.3915C153.974 9.7215 153.908 10.101 153.904 10.53C153.912 11.19 154.064 11.7235 154.361 12.1305C154.661 12.5338 155.107 12.7355 155.697 12.7355C156.086 12.7355 156.409 12.6475 156.665 12.4715C156.922 12.2918 157.116 12.0333 157.248 11.696L158.238 11.9545C158.033 12.5082 157.712 12.9317 157.276 13.225C156.839 13.5183 156.313 13.665 155.697 13.665ZM161.73 13.665C161.139 13.665 160.63 13.5312 160.201 13.2635C159.775 12.9958 159.447 12.6255 159.216 12.1525C158.985 11.6795 158.87 11.1368 158.87 10.5245C158.87 9.90117 158.987 9.35483 159.222 8.8855C159.456 8.41617 159.788 8.05133 160.217 7.791C160.646 7.527 161.15 7.395 161.73 7.395C162.324 7.395 162.835 7.52883 163.264 7.7965C163.693 8.0605 164.021 8.429 164.249 8.902C164.48 9.37133 164.595 9.91217 164.595 10.5245C164.595 11.1442 164.48 11.6905 164.249 12.1635C164.018 12.6328 163.688 13.0013 163.259 13.269C162.83 13.533 162.32 13.665 161.73 13.665ZM161.73 12.7355C162.346 12.7355 162.804 12.5302 163.105 12.1195C163.405 11.7088 163.556 11.1772 163.556 10.5245C163.556 9.8535 163.404 9.32 163.099 8.924C162.795 8.52433 162.338 8.3245 161.73 8.3245C161.315 8.3245 160.974 8.418 160.707 8.605C160.439 8.792 160.239 9.0505 160.107 9.3805C159.975 9.7105 159.909 10.0918 159.909 10.5245C159.909 11.1918 160.063 11.7272 160.371 12.1305C160.679 12.5338 161.132 12.7355 161.73 12.7355ZM172.907 13.5L172.912 9.6995C172.912 9.25583 172.793 8.90933 172.555 8.66C172.32 8.407 172.014 8.2805 171.636 8.2805C171.416 8.2805 171.207 8.33183 171.009 8.4345C170.811 8.5335 170.65 8.69117 170.525 8.9075C170.4 9.12017 170.338 9.39333 170.338 9.727L169.821 9.518C169.814 9.09633 169.9 8.72783 170.08 8.4125C170.263 8.0935 170.512 7.846 170.828 7.67C171.143 7.494 171.499 7.406 171.895 7.406C172.514 7.406 173.002 7.59483 173.358 7.9725C173.713 8.3465 173.891 8.85067 173.891 9.485L173.886 13.5H172.907ZM165.801 13.5V7.56H166.675V9.1495H166.785V13.5H165.801ZM169.359 13.5L169.365 9.738C169.365 9.28333 169.247 8.92767 169.013 8.671C168.778 8.41067 168.466 8.2805 168.078 8.2805C167.693 8.2805 167.381 8.4125 167.143 8.6765C166.904 8.9405 166.785 9.29067 166.785 9.727L166.268 9.419C166.268 9.034 166.36 8.68933 166.543 8.385C166.726 8.08067 166.976 7.84233 167.291 7.67C167.606 7.494 167.964 7.406 168.364 7.406C168.763 7.406 169.112 7.49033 169.409 7.659C169.706 7.82767 169.935 8.06967 170.096 8.385C170.257 8.69667 170.338 9.06883 170.338 9.5015L170.333 13.5H169.359ZM175.5 13.5V12.422H176.578V13.5H175.5ZM179.977 13.665C179.533 13.665 179.161 13.5843 178.861 13.423C178.564 13.258 178.338 13.0417 178.184 12.774C178.034 12.5063 177.959 12.213 177.959 11.894C177.959 11.5823 178.017 11.3128 178.135 11.0855C178.256 10.8545 178.424 10.6638 178.641 10.5135C178.857 10.3595 179.115 10.2385 179.416 10.1505C179.698 10.0735 180.014 10.0075 180.362 9.9525C180.714 9.89383 181.07 9.84067 181.429 9.793C181.788 9.74533 182.124 9.6995 182.436 9.6555L182.084 9.859C182.095 9.331 181.988 8.9405 181.765 8.6875C181.545 8.4345 181.163 8.308 180.621 8.308C180.261 8.308 179.946 8.3905 179.675 8.5555C179.407 8.71683 179.218 8.98083 179.108 9.3475L178.179 9.067C178.322 8.54633 178.598 8.1375 179.009 7.8405C179.42 7.5435 179.961 7.395 180.632 7.395C181.171 7.395 181.633 7.49217 182.018 7.6865C182.406 7.87717 182.685 8.16683 182.854 8.5555C182.938 8.73883 182.991 8.93867 183.013 9.155C183.035 9.36767 183.046 9.59133 183.046 9.826V13.5H182.177V12.0755L182.381 12.2075C182.157 12.6878 181.843 13.0508 181.44 13.2965C181.04 13.5422 180.553 13.665 179.977 13.665ZM180.126 12.8455C180.478 12.8455 180.782 12.7832 181.039 12.6585C181.299 12.5302 181.508 12.3633 181.666 12.158C181.823 11.949 181.926 11.7217 181.974 11.476C182.029 11.2927 182.058 11.0892 182.062 10.8655C182.069 10.6382 182.073 10.464 182.073 10.343L182.414 10.4915C182.095 10.5355 181.781 10.5777 181.473 10.618C181.165 10.6583 180.874 10.7023 180.599 10.75C180.324 10.794 180.076 10.8472 179.856 10.9095C179.695 10.9608 179.543 11.0268 179.4 11.1075C179.26 11.1882 179.147 11.2927 179.059 11.421C178.974 11.5457 178.932 11.7015 178.932 11.8885C178.932 12.0498 178.972 12.2038 179.053 12.3505C179.137 12.4972 179.266 12.6163 179.438 12.708C179.614 12.7997 179.843 12.8455 180.126 12.8455ZM186.731 13.654C186.35 13.654 186.022 13.5935 185.747 13.4725C185.475 13.3515 185.25 13.1902 185.07 12.9885C184.89 12.7868 184.749 12.5632 184.647 12.3175C184.544 12.0718 184.471 11.8207 184.427 11.564C184.386 11.3073 184.366 11.0672 184.366 10.8435V7.56H185.356V10.5355C185.356 10.8142 185.382 11.0837 185.433 11.344C185.484 11.6043 185.571 11.839 185.692 12.048C185.816 12.257 185.981 12.422 186.187 12.543C186.396 12.664 186.656 12.7245 186.968 12.7245C187.213 12.7245 187.437 12.6823 187.639 12.598C187.84 12.5137 188.013 12.389 188.156 12.224C188.299 12.0553 188.409 11.8427 188.486 11.586C188.563 11.3293 188.601 11.0305 188.601 10.6895L189.245 10.8875C189.245 11.4595 189.14 11.9527 188.931 12.367C188.726 12.7813 188.434 13.1003 188.057 13.324C187.683 13.544 187.241 13.654 186.731 13.654ZM188.711 13.5V11.9105H188.601V7.56H189.586V13.5H188.711Z" fill="white"/>
</svg>
