<svg width="96" height="18" viewBox="0 0 96 18" fill="none" xmlns="http://www.w3.org/2000/svg">
<g clip-path="url(#clip0_68_226)">
<path d="M15.2172 2.55776C11.6861 -0.852678 6.08797 -0.852678 2.55687 2.55776C-0.939205 6.17752 -0.838938 11.946 2.78083 15.4421C6.31193 18.8525 11.9101 18.8525 15.4412 15.4421C18.9373 11.8223 18.837 6.05383 15.2172 2.55776ZM15.0129 15.0138L15.0099 15.0108C11.6872 18.3305 6.30242 18.328 2.98271 15.0053C-0.336997 11.6826 -0.334541 6.29786 2.98819 2.97815C6.31093 -0.341554 11.6957 -0.339098 15.0154 2.9836C16.6099 4.57962 17.505 6.74381 17.5036 8.99991C17.5037 11.2555 16.6078 13.4188 15.0129 15.0138Z" fill="white"/>
<path d="M14.1176 11.5939L12.4107 9.89296C12.0233 9.50463 11.3944 9.50388 11.0061 9.89128C11.0055 9.89185 11.005 9.89239 11.0044 9.89296L10.0264 10.871C9.9524 10.9451 9.8358 10.9554 9.75002 10.8953C9.21472 10.5212 8.71364 10.1004 8.25263 9.63782C7.83974 9.22586 7.45993 8.78208 7.11666 8.3105C7.05444 8.22579 7.06348 8.10833 7.13791 8.03412L8.14022 7.0318C8.5272 6.64408 8.5272 6.01628 8.14022 5.62856L6.43326 3.92159C6.03992 3.54555 5.42034 3.54555 5.027 3.92159L4.48637 4.46222C3.66989 5.26952 3.37841 6.46825 3.7331 7.56029C3.99777 8.35926 4.3719 9.11769 4.84476 9.81397C5.27046 10.4523 5.75884 11.0465 6.30267 11.5878C6.89392 12.1833 7.54884 12.7119 8.25566 13.1642C9.03266 13.6712 9.88581 14.0506 10.7827 14.288C11.0133 14.3448 11.2499 14.3733 11.4873 14.373C12.3014 14.368 13.0802 14.0403 13.653 13.4618L14.1177 12.9971C14.5046 12.6094 14.5046 11.9816 14.1176 11.5939ZM13.6875 12.5828C13.6871 12.5832 13.6867 12.5837 13.6863 12.584L13.6893 12.5749L13.2246 13.0396C12.6275 13.6443 11.758 13.893 10.9314 13.6957C10.0987 13.4728 9.30713 13.118 8.58664 12.6448C7.91727 12.217 7.29694 11.7169 6.73691 11.1535C6.22162 10.642 5.7587 10.0803 5.35492 9.47687C4.91328 8.82757 4.56371 8.12025 4.31616 7.37503C4.03237 6.49957 4.26754 5.53893 4.92363 4.89355L5.46426 4.35292C5.61458 4.20193 5.85882 4.20139 6.00977 4.35171C6.01016 4.3521 6.01059 4.35249 6.01098 4.35292L7.71794 6.05988C7.86893 6.21019 7.86947 6.45443 7.71915 6.60539C7.71876 6.60578 7.71837 6.60617 7.71794 6.6066L6.71563 7.60891C6.42803 7.89338 6.39187 8.34542 6.6306 8.67199C6.99312 9.16952 7.39429 9.63768 7.83035 10.0722C8.31652 10.5605 8.84505 11.0047 9.40974 11.3995C9.73603 11.6271 10.1784 11.5887 10.4606 11.3084L11.4295 10.3243C11.5798 10.1733 11.8241 10.1728 11.975 10.3231C11.9754 10.3235 11.9758 10.3239 11.9763 10.3243L13.6863 12.0374C13.8373 12.1876 13.8378 12.4319 13.6875 12.5828Z" fill="white"/>
</g>
<path d="M28.1505 13.5V6.6635L26.66 7.5655V6.471L28.1505 5.58H29.146V13.5H28.1505ZM33.7138 13.665C33.2078 13.665 32.7604 13.5642 32.3718 13.3625C31.9831 13.1572 31.6788 12.873 31.4588 12.51C31.2388 12.147 31.1288 11.7235 31.1288 11.2395C31.1288 10.7665 31.2406 10.3393 31.4643 9.958C31.6916 9.57667 32.0326 9.28333 32.4873 9.078L32.4708 9.4355C32.1004 9.25583 31.8163 9.00283 31.6183 8.6765C31.4203 8.3465 31.3213 7.98167 31.3213 7.582C31.3213 7.13467 31.4239 6.74967 31.6293 6.427C31.8346 6.10433 32.1169 5.855 32.4763 5.679C32.8356 5.503 33.2481 5.415 33.7138 5.415C34.1794 5.415 34.5919 5.503 34.9513 5.679C35.3106 5.855 35.5929 6.10433 35.7983 6.427C36.0036 6.74967 36.1063 7.13467 36.1063 7.582C36.1063 7.98167 36.0128 8.34467 35.8258 8.671C35.6388 8.99367 35.3509 9.2485 34.9623 9.4355L34.9403 9.0835C35.3949 9.2815 35.7359 9.573 35.9633 9.958C36.1943 10.3393 36.3098 10.7665 36.3098 11.2395C36.3098 11.7235 36.1979 12.147 35.9743 12.51C35.7543 12.873 35.4481 13.1572 35.0558 13.3625C34.6671 13.5642 34.2198 13.665 33.7138 13.665ZM33.7138 12.73C34.1758 12.73 34.5498 12.6035 34.8358 12.3505C35.1254 12.0938 35.2703 11.7235 35.2703 11.2395C35.2703 10.7518 35.1273 10.3815 34.8413 10.1285C34.5589 9.87183 34.1831 9.7435 33.7138 9.7435C33.2481 9.7435 32.8723 9.87183 32.5863 10.1285C32.3039 10.3815 32.1628 10.7518 32.1628 11.2395C32.1628 11.7235 32.3058 12.0938 32.5918 12.3505C32.8778 12.6035 33.2518 12.73 33.7138 12.73ZM33.7138 8.803C34.1171 8.803 34.4434 8.70217 34.6928 8.5005C34.9421 8.29517 35.0668 7.989 35.0668 7.582C35.0668 7.175 34.9421 6.87067 34.6928 6.669C34.4434 6.46367 34.1171 6.361 33.7138 6.361C33.3141 6.361 32.9878 6.46367 32.7348 6.669C32.4854 6.87067 32.3608 7.175 32.3608 7.582C32.3608 7.989 32.4854 8.29517 32.7348 8.5005C32.9878 8.70217 33.3141 8.803 33.7138 8.803ZM40.4108 13.665C39.8974 13.665 39.4391 13.5495 39.0358 13.3185C38.6361 13.0838 38.3189 12.7667 38.0843 12.367C37.8533 11.9637 37.7378 11.5053 37.7378 10.992V8.088C37.7378 7.57467 37.8533 7.11633 38.0843 6.713C38.3189 6.30967 38.6361 5.9925 39.0358 5.7615C39.4391 5.5305 39.8974 5.415 40.4108 5.415C40.9241 5.415 41.3824 5.5305 41.7858 5.7615C42.1891 5.9925 42.5063 6.30967 42.7373 6.713C42.9683 7.11633 43.0838 7.57467 43.0838 8.088V10.992C43.0838 11.5053 42.9683 11.9637 42.7373 12.367C42.5063 12.7667 42.1891 13.0838 41.7858 13.3185C41.3824 13.5495 40.9241 13.665 40.4108 13.665ZM40.4108 12.7245C40.7224 12.7245 41.0048 12.6493 41.2578 12.499C41.5108 12.3487 41.7124 12.147 41.8628 11.894C42.0131 11.6373 42.0883 11.355 42.0883 11.047V8.0275C42.0883 7.71583 42.0131 7.4335 41.8628 7.1805C41.7124 6.9275 41.5108 6.72583 41.2578 6.5755C41.0048 6.42517 40.7224 6.35 40.4108 6.35C40.1028 6.35 39.8204 6.42517 39.5638 6.5755C39.3108 6.72583 39.1091 6.9275 38.9588 7.1805C38.8084 7.4335 38.7333 7.71583 38.7333 8.0275V11.047C38.7333 11.355 38.8084 11.6373 38.9588 11.894C39.1091 12.147 39.3108 12.3487 39.5638 12.499C39.8204 12.6493 40.1028 12.7245 40.4108 12.7245ZM47.2965 13.665C46.7832 13.665 46.3248 13.5495 45.9215 13.3185C45.5218 13.0838 45.2047 12.7667 44.97 12.367C44.739 11.9637 44.6235 11.5053 44.6235 10.992V8.088C44.6235 7.57467 44.739 7.11633 44.97 6.713C45.2047 6.30967 45.5218 5.9925 45.9215 5.7615C46.3248 5.5305 46.7832 5.415 47.2965 5.415C47.8098 5.415 48.2682 5.5305 48.6715 5.7615C49.0748 5.9925 49.392 6.30967 49.623 6.713C49.854 7.11633 49.9695 7.57467 49.9695 8.088V10.992C49.9695 11.5053 49.854 11.9637 49.623 12.367C49.392 12.7667 49.0748 13.0838 48.6715 13.3185C48.2682 13.5495 47.8098 13.665 47.2965 13.665ZM47.2965 12.7245C47.6082 12.7245 47.8905 12.6493 48.1435 12.499C48.3965 12.3487 48.5982 12.147 48.7485 11.894C48.8988 11.6373 48.974 11.355 48.974 11.047V8.0275C48.974 7.71583 48.8988 7.4335 48.7485 7.1805C48.5982 6.9275 48.3965 6.72583 48.1435 6.5755C47.8905 6.42517 47.6082 6.35 47.2965 6.35C46.9885 6.35 46.7062 6.42517 46.4495 6.5755C46.1965 6.72583 45.9948 6.9275 45.8445 7.1805C45.6942 7.4335 45.619 7.71583 45.619 8.0275V11.047C45.619 11.355 45.6942 11.6373 45.8445 11.894C45.9948 12.147 46.1965 12.3487 46.4495 12.499C46.7062 12.6493 46.9885 12.7245 47.2965 12.7245ZM56.3019 5.4205C56.8079 5.4205 57.2644 5.5415 57.6714 5.7835C58.0784 6.0255 58.4011 6.3555 58.6394 6.7735C58.8814 7.1915 59.0024 7.66633 59.0024 8.198V10.8325C59.0024 11.3862 58.8832 11.8757 58.6449 12.301C58.4066 12.7263 58.0766 13.06 57.6549 13.302C57.2369 13.544 56.7566 13.665 56.2139 13.665C55.7812 13.665 55.3761 13.5752 54.9984 13.3955C54.6244 13.2158 54.3072 12.961 54.0469 12.631L54.7784 11.982C54.9397 12.2093 55.1469 12.3927 55.3999 12.532C55.6529 12.6677 55.9242 12.7355 56.2139 12.7355C56.5659 12.7355 56.8757 12.6512 57.1434 12.4825C57.4147 12.3138 57.6256 12.0938 57.7759 11.8225C57.9299 11.5512 58.0069 11.2578 58.0069 10.9425V9.353L58.2214 9.595C57.9941 9.925 57.7026 10.189 57.3469 10.387C56.9912 10.585 56.6044 10.684 56.1864 10.684C55.6951 10.684 55.2551 10.5685 54.8664 10.3375C54.4777 10.1065 54.1697 9.79483 53.9424 9.4025C53.7151 9.0065 53.6014 8.56283 53.6014 8.0715C53.6014 7.58017 53.7242 7.13467 53.9699 6.735C54.2156 6.33167 54.5419 6.01267 54.9489 5.778C55.3596 5.53967 55.8106 5.4205 56.3019 5.4205ZM56.3019 6.3665C55.9866 6.3665 55.6987 6.4435 55.4384 6.5975C55.1817 6.74783 54.9764 6.95317 54.8224 7.2135C54.6684 7.47017 54.5914 7.75617 54.5914 8.0715C54.5914 8.38683 54.6666 8.67467 54.8169 8.935C54.9709 9.19167 55.1762 9.397 55.4329 9.551C55.6932 9.705 55.9811 9.782 56.2964 9.782C56.6117 9.782 56.8996 9.705 57.1599 9.551C57.4202 9.397 57.6256 9.19167 57.7759 8.935C57.9299 8.67467 58.0069 8.38683 58.0069 8.0715C58.0069 7.75983 57.9299 7.47567 57.7759 7.219C57.6256 6.95867 57.4202 6.7515 57.1599 6.5975C56.9032 6.4435 56.6172 6.3665 56.3019 6.3665ZM63.2439 13.665C62.7416 13.665 62.2851 13.544 61.8744 13.302C61.4674 13.06 61.1429 12.73 60.9009 12.312C60.6626 11.8903 60.5434 11.4155 60.5434 10.8875V8.253C60.5434 7.69933 60.6626 7.20983 60.9009 6.7845C61.1429 6.3555 61.4729 6.02183 61.8909 5.7835C62.3126 5.5415 62.7929 5.4205 63.3319 5.4205C63.7683 5.4205 64.1734 5.51033 64.5474 5.69C64.9251 5.866 65.2423 6.12083 65.4989 6.4545L64.7674 7.1035C64.6098 6.8725 64.4044 6.68917 64.1514 6.5535C63.8984 6.41783 63.6253 6.35 63.3319 6.35C62.9836 6.35 62.6738 6.43433 62.4024 6.603C62.1348 6.768 61.9239 6.988 61.7699 7.263C61.6159 7.53433 61.5389 7.82767 61.5389 8.143V9.7325L61.3244 9.4905C61.5554 9.1605 61.8488 8.8965 62.2044 8.6985C62.5601 8.5005 62.9451 8.4015 63.3594 8.4015C63.8508 8.4015 64.2908 8.517 64.6794 8.748C65.0718 8.979 65.3798 9.2925 65.6034 9.6885C65.8308 10.0808 65.9444 10.5227 65.9444 11.014C65.9444 11.5053 65.8216 11.9508 65.5759 12.3505C65.3303 12.7502 65.0021 13.0692 64.5914 13.3075C64.1844 13.5458 63.7353 13.665 63.2439 13.665ZM63.2439 12.719C63.5593 12.719 63.8471 12.6438 64.1074 12.4935C64.3678 12.3395 64.5731 12.1342 64.7234 11.8775C64.8774 11.6172 64.9544 11.3293 64.9544 11.014C64.9544 10.6987 64.8774 10.4108 64.7234 10.1505C64.5731 9.89017 64.3678 9.68483 64.1074 9.5345C63.8508 9.3805 63.5648 9.3035 63.2494 9.3035C62.9341 9.3035 62.6463 9.3805 62.3859 9.5345C62.1293 9.68483 61.9239 9.89017 61.7699 10.1505C61.6159 10.4108 61.5389 10.6987 61.5389 11.014C61.5389 11.3257 61.6141 11.6117 61.7644 11.872C61.9184 12.1287 62.1238 12.334 62.3804 12.488C62.6408 12.642 62.9286 12.719 63.2439 12.719ZM67.1555 13.4945L67.161 12.6145L70.6755 9.452C70.9688 9.188 71.165 8.93867 71.264 8.704C71.3666 8.46567 71.418 8.22183 71.418 7.9725C71.418 7.66817 71.3483 7.39317 71.209 7.1475C71.0696 6.90183 70.879 6.7075 70.637 6.5645C70.3986 6.4215 70.1273 6.35 69.823 6.35C69.5076 6.35 69.2271 6.42517 68.9815 6.5755C68.7358 6.72217 68.5415 6.91833 68.3985 7.164C68.2591 7.40967 68.1913 7.67733 68.195 7.967H67.194C67.194 7.46833 67.3095 7.02833 67.5405 6.647C67.7715 6.262 68.085 5.96133 68.481 5.745C68.8806 5.525 69.3335 5.415 69.8395 5.415C70.3308 5.415 70.7708 5.52867 71.1595 5.756C71.5481 5.97967 71.8543 6.28583 72.078 6.6745C72.3053 7.0595 72.419 7.49583 72.419 7.9835C72.419 8.32817 72.375 8.627 72.287 8.88C72.2026 9.133 72.0706 9.36767 71.891 9.584C71.7113 9.79667 71.4858 10.024 71.2145 10.266L68.294 12.8895L68.1675 12.5595H72.419V13.4945H67.1555ZM78.61 13.665C78.0967 13.665 77.6383 13.5495 77.235 13.3185C76.8353 13.0838 76.5182 12.7667 76.2835 12.367C76.0525 11.9637 75.937 11.5053 75.937 10.992V8.088C75.937 7.57467 76.0525 7.11633 76.2835 6.713C76.5182 6.30967 76.8353 5.9925 77.235 5.7615C77.6383 5.5305 78.0967 5.415 78.61 5.415C79.1233 5.415 79.5817 5.5305 79.985 5.7615C80.3883 5.9925 80.7055 6.30967 80.9365 6.713C81.1675 7.11633 81.283 7.57467 81.283 8.088V10.992C81.283 11.5053 81.1675 11.9637 80.9365 12.367C80.7055 12.7667 80.3883 13.0838 79.985 13.3185C79.5817 13.5495 79.1233 13.665 78.61 13.665ZM78.61 12.7245C78.9217 12.7245 79.204 12.6493 79.457 12.499C79.71 12.3487 79.9117 12.147 80.062 11.894C80.2123 11.6373 80.2875 11.355 80.2875 11.047V8.0275C80.2875 7.71583 80.2123 7.4335 80.062 7.1805C79.9117 6.9275 79.71 6.72583 79.457 6.5755C79.204 6.42517 78.9217 6.35 78.61 6.35C78.302 6.35 78.0197 6.42517 77.763 6.5755C77.51 6.72583 77.3083 6.9275 77.158 7.1805C77.0077 7.4335 76.9325 7.71583 76.9325 8.0275V11.047C76.9325 11.355 77.0077 11.6373 77.158 11.894C77.3083 12.147 77.51 12.3487 77.763 12.499C78.0197 12.6493 78.302 12.7245 78.61 12.7245ZM85.4957 13.665C84.9824 13.665 84.5241 13.5495 84.1207 13.3185C83.7211 13.0838 83.4039 12.7667 83.1692 12.367C82.9382 11.9637 82.8227 11.5053 82.8227 10.992V8.088C82.8227 7.57467 82.9382 7.11633 83.1692 6.713C83.4039 6.30967 83.7211 5.9925 84.1207 5.7615C84.5241 5.5305 84.9824 5.415 85.4957 5.415C86.0091 5.415 86.4674 5.5305 86.8707 5.7615C87.2741 5.9925 87.5912 6.30967 87.8222 6.713C88.0532 7.11633 88.1687 7.57467 88.1687 8.088V10.992C88.1687 11.5053 88.0532 11.9637 87.8222 12.367C87.5912 12.7667 87.2741 13.0838 86.8707 13.3185C86.4674 13.5495 86.0091 13.665 85.4957 13.665ZM85.4957 12.7245C85.8074 12.7245 86.0897 12.6493 86.3427 12.499C86.5957 12.3487 86.7974 12.147 86.9477 11.894C87.0981 11.6373 87.1732 11.355 87.1732 11.047V8.0275C87.1732 7.71583 87.0981 7.4335 86.9477 7.1805C86.7974 6.9275 86.5957 6.72583 86.3427 6.5755C86.0897 6.42517 85.8074 6.35 85.4957 6.35C85.1877 6.35 84.9054 6.42517 84.6487 6.5755C84.3957 6.72583 84.1941 6.9275 84.0437 7.1805C83.8934 7.4335 83.8182 7.71583 83.8182 8.0275V11.047C83.8182 11.355 83.8934 11.6373 84.0437 11.894C84.1941 12.147 84.3957 12.3487 84.6487 12.499C84.9054 12.6493 85.1877 12.7245 85.4957 12.7245ZM92.3815 13.665C91.8681 13.665 91.4098 13.5495 91.0065 13.3185C90.6068 13.0838 90.2896 12.7667 90.055 12.367C89.824 11.9637 89.7085 11.5053 89.7085 10.992V8.088C89.7085 7.57467 89.824 7.11633 90.055 6.713C90.2896 6.30967 90.6068 5.9925 91.0065 5.7615C91.4098 5.5305 91.8681 5.415 92.3815 5.415C92.8948 5.415 93.3531 5.5305 93.7565 5.7615C94.1598 5.9925 94.477 6.30967 94.708 6.713C94.939 7.11633 95.0545 7.57467 95.0545 8.088V10.992C95.0545 11.5053 94.939 11.9637 94.708 12.367C94.477 12.7667 94.1598 13.0838 93.7565 13.3185C93.3531 13.5495 92.8948 13.665 92.3815 13.665ZM92.3815 12.7245C92.6931 12.7245 92.9755 12.6493 93.2285 12.499C93.4815 12.3487 93.6831 12.147 93.8335 11.894C93.9838 11.6373 94.059 11.355 94.059 11.047V8.0275C94.059 7.71583 93.9838 7.4335 93.8335 7.1805C93.6831 6.9275 93.4815 6.72583 93.2285 6.5755C92.9755 6.42517 92.6931 6.35 92.3815 6.35C92.0735 6.35 91.7911 6.42517 91.5345 6.5755C91.2815 6.72583 91.0798 6.9275 90.9295 7.1805C90.7791 7.4335 90.704 7.71583 90.704 8.0275V11.047C90.704 11.355 90.7791 11.6373 90.9295 11.894C91.0798 12.147 91.2815 12.3487 91.5345 12.499C91.7911 12.6493 92.0735 12.7245 92.3815 12.7245Z" fill="white"/>
<defs>
<clipPath id="clip0_68_226">
<rect width="18" height="18" fill="white"/>
</clipPath>
</defs>
</svg>
