<svg width="199" height="22" viewBox="0 0 199 22" fill="none" xmlns="http://www.w3.org/2000/svg">
<g clip-path="url(#clip0_68_215)">
<path d="M22.9647 21.9377H16.5827L8.43029 5.48328H5.57531L0.0136719 3.05176e-05H12.0639L19.9012 15.814L28.5356 3.05176e-05H34.8712L22.9647 21.9377Z" fill="white"/>
<path d="M51.371 11.607L51.3015 15.7384L51.1439 21.9377H46.8336L46.9959 15.7384H38.38L38.2177 21.9377H33.9121L34.1253 13.6705L34.1948 9.53912L34.3014 5.40771H51.5332L51.371 11.607ZM38.5005 9.53912L38.4495 11.607H47.0654L47.1164 9.53912H38.5005Z" fill="white"/>
<path d="M72.2088 17.8064L72.1022 21.9377H54.875L54.9816 17.8064L55.2643 5.40771H59.5699L59.2872 17.8064H72.2088Z" fill="white"/>
<path d="M81.9694 13.6705L92.5272 21.9377H86.0618L79.6891 16.9792L79.5825 21.9377H75.2769L75.6662 5.40771H79.9718L79.8652 10.3662L86.4326 5.40771H92.9211L81.9694 13.6705Z" fill="white"/>
<path d="M115.344 9.53912H109.004L108.674 21.9377L104.341 22L104.777 9.54802H98.886L95.1782 5.41661H115.446L115.344 9.53912Z" fill="white"/>
<path d="M135.848 11.607L135.778 15.7384H127.705L135.621 21.9377H129.16L122.792 16.9792L122.685 21.9377H118.375L118.537 15.7384L118.607 11.607L118.764 5.40771H135.996L135.848 11.607ZM122.982 9.53912L122.926 11.607H131.542L131.598 9.53912H122.982Z" fill="white"/>
<path d="M156.81 11.607L156.741 15.7384L156.579 21.9377H152.273L152.435 15.7384H143.819L143.657 21.9377H139.352L139.565 13.6705L139.634 9.53912L139.741 5.40771H156.973L156.81 11.607ZM143.945 9.53912L143.889 11.607H152.505L152.556 9.53912H143.945Z" fill="white"/>
<path d="M177.879 7.47558L177.824 9.53912L177.754 13.6705L177.597 19.8698L175.386 21.9377H160.333L160.546 13.6705L160.722 5.40771H175.794L177.879 7.47558ZM164.902 9.53912L164.833 13.6705L164.726 17.8064H173.342L173.449 13.6705L173.518 9.53912H164.902Z" fill="white"/>
<path d="M199 5.40771L198.893 9.53912H185.972L185.916 11.607H198.842L198.768 15.7384H185.847L185.796 17.8064H198.717L198.611 21.9377H181.379L181.541 15.7384L181.611 11.607L181.768 5.40771H199Z" fill="white"/>
</g>
<defs>
<clipPath id="clip0_68_215">
<rect width="199" height="22" fill="white"/>
</clipPath>
</defs>
</svg>
